<svg id="logo" xmlns="http://www.w3.org/2000/svg" viewBox="0 0 2000 2000"><defs><style>.cls-1{fill:#eab300;}.cls-2{fill:#fff;}</style></defs><title>bsv-icon-full</title><path class="cls-1" d="M1996.79,918.83c48.64,616.13-461.8,1126.57-1078,1078-484.73-38.23-877.42-431-915.59-915.71C-45.32,464.91,465.1-45.43,1081.19,3.21,1565.87,41.48,1958.52,434.15,1996.79,918.83Z"/><path class="cls-2" d="M1286.59,964.23c59.6-40.89,100.49-86.91,100.49-173.72,0-137.88-137.15-202.56-220.65-210.77-6.79-.74-25.78-1.08-25.78-1.08l.17-131.91-135.8.33.33,131.92-91-.25.24-131.42-138.8.08-.16,130.76c-24.38.58-170.73.42-170.73.42V695.33s37,0,47.6.16c45.85-.08,66.5,28.94,66.5,49.09l.07,7.3v503.46c-.66,17.83-14.92,31.75-30.76,32.58-20.8.92-51.73.24-51.73.24l-26.7,132.35,166.41.16-.09,132.42H914.64l-.24-132.58h91l-.16,132.83h135.63l.07-132.08s7.47-.26,10-.26c156.55,0,293-92.7,295.1-242.69C1447.78,1055.42,1342.55,984.37,1286.59,964.23ZM914.31,904.68V704.45c18.57.08,87.07.25,127.94.25,3.86,0,7,.68,10.67.85,55.61,2.7,90.25,24.79,108.84,51.37,12.63,18.07,18.27,37.9,18.27,54.65,0,15.77-4.23,32.09-7,39.94a101.38,101.38,0,0,1-17,30.86c-9.62,11.79-15.15,15.74-21.21,20-20.76,14.57-49.86,26-91.77,28-.55,0-126.73.33-128.72.24ZM1220.7,1202a109.47,109.47,0,0,1-18.43,33.34c-10.39,12.73-16.37,17-22.91,21.6-22.44,15.75-53.89,28.12-99.17,30.3-.6,0-163.73.36-165.88.26V1043c20.07.09,120.86.27,165,.27,4.17,0,7.55.73,11.52.92,60.11,2.92,97.54,26.79,117.63,55.52,13.64,19.52,19.75,41,19.75,59.06C1228.24,1175.82,1223.67,1193.47,1220.7,1202Z"/></svg>