<svg width="54" height="19" viewBox="0 0 54 19" fill="none" xmlns="http://www.w3.org/2000/svg">
<path d="M8.64062 17.5781C8.40625 17.6094 8.17969 17.6484 7.96094 17.6953C7.75781 17.7422 7.54688 17.7969 7.32812 17.8594C7.23438 17.8906 7.14062 17.9141 7.04688 17.9297C6.95312 17.9453 6.85156 17.9688 6.74219 18C6.46094 17.9375 6.1875 17.8906 5.92188 17.8594C5.67188 17.8281 5.44531 17.8125 5.24219 17.8125L4.89062 17.7188C4.70312 17.6562 4.5625 17.6094 4.46875 17.5781C4.375 17.5312 4.28125 17.5 4.1875 17.4844C4.10938 17.4531 4.00781 17.4297 3.88281 17.4141C3.77344 17.3984 3.60938 17.375 3.39062 17.3438C3.125 17.4531 2.86719 17.5078 2.61719 17.5078C2.44531 17.5078 2.26562 17.4844 2.07812 17.4375C1.89062 17.375 1.70312 17.2656 1.51562 17.1094C1.32812 16.9375 1.14844 16.7109 0.976562 16.4297C0.804688 16.1328 0.65625 15.7578 0.53125 15.3047C0.578125 14.9453 0.632812 14.6328 0.695312 14.3672C0.757812 14.1016 0.820312 13.8906 0.882812 13.7344L1.07031 13.5234C1.35156 13.4141 1.67188 13.3594 2.03125 13.3594C2.375 13.3594 2.71094 13.4141 3.03906 13.5234C3.36719 13.6328 3.69531 13.75 4.02344 13.875C4.16406 13.9375 4.26562 13.9844 4.32812 14.0156C4.39062 14.0469 4.4375 14.0703 4.46875 14.0859C4.5 14.1016 4.53906 14.1094 4.58594 14.1094C4.64844 14.1094 4.75 14.1094 4.89062 14.1094C4.96875 14.1094 5.03906 14.1094 5.10156 14.1094C5.17969 14.0938 5.25781 14.0781 5.33594 14.0625L5.61719 14.0859C5.72656 14.1484 5.85938 14.1797 6.01562 14.1797C6.125 14.1797 6.23438 14.1641 6.34375 14.1328C6.46875 14.1016 6.59375 14.0703 6.71875 14.0391C6.84375 13.9922 6.95312 13.9609 7.04688 13.9453C7.14062 13.9297 7.22656 13.9062 7.30469 13.875L7.53906 13.6641C7.69531 13.6016 7.8125 13.5312 7.89062 13.4531C7.98438 13.375 8.0625 13.2891 8.125 13.1953C8.1875 13.0859 8.24219 12.9766 8.28906 12.8672C8.35156 12.7578 8.42969 12.6406 8.52344 12.5156C8.60156 12.4219 8.67188 12.3281 8.73438 12.2344C8.8125 12.1406 8.89062 12.0547 8.96875 11.9766V11.7422C9.21875 11.1641 9.4375 10.5781 9.625 9.98438C9.8125 9.39062 9.97656 8.79688 10.1172 8.20312C10.2578 7.60938 10.375 7.03125 10.4688 6.46875C10.5781 5.90625 10.6719 5.39844 10.75 4.94531C10.7031 4.94531 10.6562 4.94531 10.6094 4.94531C10.5625 4.92969 10.5234 4.92188 10.4922 4.92188C10.0234 4.92188 9.64062 4.92969 9.34375 4.94531C9.04688 4.96094 8.77344 4.98438 8.52344 5.01562C8.27344 5.04688 8.00781 5.09375 7.72656 5.15625C7.46094 5.20312 7.11719 5.26562 6.69531 5.34375L6.29688 5.41406C6 5.55469 5.71094 5.6875 5.42969 5.8125C5.16406 5.92188 4.88281 5.97656 4.58594 5.97656C4.11719 5.97656 3.71094 5.78906 3.36719 5.41406C3.00781 5.19531 2.80469 4.88281 2.75781 4.47656C2.67969 4.33594 2.64844 4.20312 2.66406 4.07812C2.60156 3.85938 2.5625 3.66406 2.54688 3.49219C2.54688 3.30469 2.54688 3.13281 2.54688 2.97656L2.57031 2.57812H2.92188C3.01562 2.48438 3.07812 2.41406 3.10938 2.36719C3.15625 2.32031 3.1875 2.26562 3.20312 2.20312L3.27344 1.96875L3.50781 1.94531C3.83594 1.89844 4.17188 1.84375 4.51562 1.78125C4.85938 1.71875 5.21094 1.64844 5.57031 1.57031C5.92969 1.50781 6.23438 1.45312 6.48438 1.40625C6.75 1.35938 7 1.32812 7.23438 1.3125C7.46875 1.28125 7.71094 1.26562 7.96094 1.26562C8.21094 1.25 8.5 1.24219 8.82812 1.24219C8.95312 1.24219 9.0625 1.25 9.15625 1.26562C9.26562 1.26562 9.375 1.26562 9.48438 1.26562C9.54688 1.1875 9.60938 1.14062 9.67188 1.125C9.73438 1.10938 9.78125 1.10156 9.8125 1.10156C9.92188 1.11719 10 1.13281 10.0469 1.14844C10.1094 1.16406 10.1562 1.17969 10.1875 1.19531C10.7188 1.10156 11.2031 1.04688 11.6406 1.03125C12.0938 1 12.5 0.984375 12.8594 0.984375C13.0312 0.984375 13.2031 0.984375 13.375 0.984375C13.5469 0.984375 13.7109 0.992188 13.8672 1.00781H14.7578H15.3906C15.4688 0.992188 15.5391 0.984375 15.6016 0.984375C15.6797 0.984375 15.7578 0.984375 15.8359 0.984375C15.9922 0.984375 16.1094 0.984375 16.1875 0.984375C16.2812 0.984375 16.3594 0.992188 16.4219 1.00781C16.4844 1.00781 16.5469 1.01562 16.6094 1.03125C16.6719 1.03125 16.7578 1.03906 16.8672 1.05469C17.1328 1.10156 17.375 1.14062 17.5938 1.17188C17.8125 1.20312 18.0312 1.21875 18.25 1.21875L18.6953 1.19531L18.7656 1.47656L18.9766 1.78125C19.0234 1.875 19.0859 1.96094 19.1641 2.03906C19.2422 2.11719 19.3281 2.19531 19.4219 2.27344C19.6094 2.44531 19.7891 2.66406 19.9609 2.92969C20.1484 3.17969 20.2188 3.54688 20.1719 4.03125L19.9609 4.3125C19.8984 4.34375 19.8359 4.38281 19.7734 4.42969C19.7266 4.47656 19.6719 4.53125 19.6094 4.59375L19.375 4.80469C19.1719 4.82031 19 4.83594 18.8594 4.85156C18.7188 4.85156 18.5625 4.85156 18.3906 4.85156C18.1094 4.85156 17.8203 4.84375 17.5234 4.82812C17.2422 4.8125 16.9453 4.79688 16.6328 4.78125C16.4609 4.76562 16.3281 4.75781 16.2344 4.75781C16.1406 4.75781 16.0547 4.75781 15.9766 4.75781C15.8984 4.75781 15.8047 4.76562 15.6953 4.78125C15.6016 4.78125 15.4766 4.78125 15.3203 4.78125C15.1641 4.78125 15.0469 4.78125 14.9688 4.78125C14.9062 4.78125 14.8125 4.78906 14.6875 4.80469C14.6562 5.30469 14.5938 5.74219 14.5 6.11719C14.4219 6.47656 14.3203 6.85938 14.1953 7.26562C13.8984 8.79688 13.5312 10.2422 13.0938 11.6016C12.6719 12.9609 12.1953 14.1875 11.6641 15.2812C11.1641 15.8125 10.6875 16.2891 10.2344 16.7109C9.78125 17.1172 9.27344 17.4062 8.71094 17.5781H8.64062ZM22.0234 16.3594C22.1016 16.8281 22.0703 17.1953 21.9297 17.4609C21.8047 17.7266 21.6172 17.9219 21.3672 18.0469C21.1328 18.1875 20.8594 18.2656 20.5469 18.2812C20.2344 18.2969 19.9375 18.2812 19.6562 18.2344C19.5 18.0156 19.3594 17.7422 19.2344 17.4141C19.1094 17.0859 18.9922 16.75 18.8828 16.4062C18.7734 16.0469 18.6719 15.6953 18.5781 15.3516C18.5 15.0078 18.4297 14.7031 18.3672 14.4375C18.4453 14.25 18.4922 14.0391 18.5078 13.8047C18.5391 13.5547 18.5547 13.3047 18.5547 13.0547C18.5703 12.8047 18.5781 12.5547 18.5781 12.3047C18.5938 12.0391 18.6172 11.7891 18.6484 11.5547C18.7578 10.8984 18.9141 10.2734 19.1172 9.67969C19.3359 9.08594 19.5078 8.46875 19.6328 7.82812C19.6641 7.6875 19.6484 7.55469 19.5859 7.42969C19.5391 7.30469 19.5312 7.1875 19.5625 7.07812C19.5781 7.01562 19.625 6.97656 19.7031 6.96094C19.7812 6.92969 19.8281 6.875 19.8438 6.79688C19.8906 6.625 19.8984 6.48438 19.8672 6.375C19.8516 6.26562 19.8828 6.13281 19.9609 5.97656C20.0391 5.85156 20.1328 5.67188 20.2422 5.4375C20.3672 5.1875 20.4141 4.92969 20.3828 4.66406C20.5234 4.57031 20.6562 4.46094 20.7812 4.33594C20.9062 4.21094 21.0312 4.10156 21.1562 4.00781C21.2969 3.89844 21.4453 3.80469 21.6016 3.72656C21.7734 3.64844 21.9766 3.60938 22.2109 3.60938C22.3359 3.76562 22.4141 3.9375 22.4453 4.125C22.4922 4.3125 22.5312 4.5 22.5625 4.6875C22.6094 4.875 22.6719 5.05469 22.75 5.22656C22.8281 5.38281 22.9609 5.50781 23.1484 5.60156C23.1484 5.72656 23.1484 5.88281 23.1484 6.07031C23.1484 6.25781 23.1562 6.44531 23.1719 6.63281C23.1875 6.80469 23.2188 6.96875 23.2656 7.125C23.3281 7.26562 23.4219 7.35938 23.5469 7.40625C23.2656 8.15625 23 8.89844 22.75 9.63281C22.5156 10.3672 22.3203 11.1094 22.1641 11.8594C22.0078 12.5938 21.9062 13.3359 21.8594 14.0859C21.8281 14.8359 21.8828 15.5938 22.0234 16.3594ZM41.3594 13.7812C40.9844 14.4531 40.4922 14.9766 39.8828 15.3516C39.2734 15.7109 38.6016 16.0156 37.8672 16.2656C37.1328 16.5 36.3594 16.7109 35.5469 16.8984C34.75 17.0859 33.9766 17.3281 33.2266 17.625C33.0078 17.625 32.8125 17.6328 32.6406 17.6484C32.4844 17.6641 32.3281 17.6875 32.1719 17.7188C32.0312 17.7344 31.8906 17.7578 31.75 17.7891C31.6094 17.8047 31.4531 17.8203 31.2812 17.8359C31.2188 17.8203 31.1797 17.8359 31.1641 17.8828C31.1484 17.9141 31.125 17.9453 31.0938 17.9766C30.8281 18.0234 30.5859 18.0469 30.3672 18.0469C30.1641 18.0469 29.9922 18.0469 29.8516 18.0469C29.6641 18.0469 29.4688 18.0703 29.2656 18.1172C29.0781 18.1797 28.9062 18.2031 28.75 18.1875C27.5781 18.125 26.6562 17.7109 25.9844 16.9453C25.3281 16.1641 24.9609 15.0859 24.8828 13.7109C24.8984 13.6328 24.8828 13.5859 24.8359 13.5703C24.8047 13.5547 24.7734 13.5312 24.7422 13.5C24.7422 13.3438 24.7578 13.2109 24.7891 13.1016C24.8359 12.9922 24.8438 12.8516 24.8125 12.6797C25.2188 11.8203 25.6797 11.0234 26.1953 10.2891C26.7109 9.53906 27.3281 8.88281 28.0469 8.32031C28.1562 8.22656 28.25 8.13281 28.3281 8.03906C28.4062 7.94531 28.4766 7.85156 28.5391 7.75781C28.6172 7.66406 28.7031 7.58594 28.7969 7.52344C28.8906 7.44531 29.0078 7.39062 29.1484 7.35938C29.4766 6.98438 29.8672 6.64062 30.3203 6.32812C30.7734 6.01562 31.25 5.71875 31.75 5.4375C32.25 5.14062 32.7422 4.85156 33.2266 4.57031C33.7266 4.27344 34.1797 3.94531 34.5859 3.58594C34.7578 3.66406 34.8828 3.6875 34.9609 3.65625C35.0391 3.625 35.125 3.625 35.2188 3.65625C35.3281 3.89062 35.4766 4.05469 35.6641 4.14844C35.8672 4.24219 36.0625 4.34375 36.25 4.45312C36.4531 4.54688 36.6406 4.66406 36.8125 4.80469C36.9844 4.94531 37.1172 5.13281 37.2109 5.36719C37.1172 5.36719 37.0703 5.40625 37.0703 5.48438C37.0859 5.54688 37.1094 5.61719 37.1406 5.69531C37.1719 5.75781 37.1797 5.82812 37.1641 5.90625C37.1641 5.96875 37.1094 6 37 6C37.0156 6.07812 37.0625 6.125 37.1406 6.14062C37.2344 6.14062 37.2812 6.17969 37.2812 6.25781C37.2812 6.33594 37.2578 6.39844 37.2109 6.44531C37.1797 6.49219 37.1797 6.57031 37.2109 6.67969C36.8984 6.88281 36.5469 7.07812 36.1562 7.26562C35.7812 7.45312 35.3828 7.65625 34.9609 7.875C34.5547 8.07812 34.125 8.30469 33.6719 8.55469C33.2344 8.78906 32.8047 9.0625 32.3828 9.375C31.9609 9.6875 31.5312 10.0391 31.0938 10.4297C30.6562 10.8047 30.2344 11.2031 29.8281 11.625C29.4219 12.0469 29.0391 12.4844 28.6797 12.9375C28.3203 13.375 28.0156 13.8125 27.7656 14.25C27.7969 14.3281 27.8281 14.3906 27.8594 14.4375C27.9062 14.4688 27.9453 14.5234 27.9766 14.6016C28.4766 14.6328 28.9375 14.6328 29.3594 14.6016C29.7969 14.5547 30.2344 14.5781 30.6719 14.6719C30.7188 14.6406 30.75 14.5938 30.7656 14.5312C30.7812 14.4688 30.8203 14.4219 30.8828 14.3906C31.7734 14.2969 32.6016 14.1562 33.3672 13.9688C34.1328 13.7656 34.9141 13.5547 35.7109 13.3359C35.5859 13.2891 35.4688 13.25 35.3594 13.2188C35.2656 13.1719 35.1719 13.1328 35.0781 13.1016C35 13.0234 35 12.9609 35.0781 12.9141C35.1719 12.8516 35.25 12.7891 35.3125 12.7266C35.0938 12.6016 34.9141 12.4453 34.7734 12.2578C34.6484 12.0703 34.5703 11.8203 34.5391 11.5078C34.6328 11.4297 34.6797 11.3359 34.6797 11.2266C34.6797 11.1172 34.6328 11.0312 34.5391 10.9688C34.4766 10.9531 34.4375 10.9531 34.4219 10.9688C34.4062 10.9844 34.3906 11.0078 34.375 11.0391C34.375 11.0703 34.3672 11.1016 34.3516 11.1328C34.3359 11.1484 34.2969 11.1406 34.2344 11.1094C34.25 10.9688 34.2812 10.8516 34.3281 10.7578C34.3906 10.6641 34.4375 10.5547 34.4688 10.4297L36.0859 9.35156C36.2578 9.47656 36.4688 9.61719 36.7188 9.77344C36.9688 9.91406 37.2266 10.0625 37.4922 10.2188C37.7734 10.3594 38.0547 10.5078 38.3359 10.6641C38.6328 10.8047 38.9062 10.9453 39.1562 11.0859C39.375 11.1797 39.5703 11.3047 39.7422 11.4609C39.9141 11.6172 40.0781 11.7812 40.2344 11.9531C40.3906 12.1094 40.5469 12.2656 40.7031 12.4219C40.875 12.5781 41.0703 12.7109 41.2891 12.8203C41.2578 13.0234 41.2656 13.1875 41.3125 13.3125C41.3594 13.4375 41.375 13.5938 41.3594 13.7812ZM40.0469 7.45312C40.1562 7.125 40.3281 6.84375 40.5625 6.60938C40.8125 6.375 41.0781 6.17969 41.3594 6.02344C41.6562 5.85156 41.9609 5.71094 42.2734 5.60156C42.5859 5.49219 42.8828 5.39844 43.1641 5.32031C43.7891 5.05469 44.4531 4.80469 45.1562 4.57031C45.875 4.32031 46.6016 4.10156 47.3359 3.91406C48.0859 3.72656 48.8516 3.60938 49.6328 3.5625C50.4141 3.5 51.2344 3.59375 52.0938 3.84375C52.1406 4 52.2109 4.14844 52.3047 4.28906C52.3984 4.42969 52.4922 4.57031 52.5859 4.71094C52.6953 4.85156 52.7891 4.99219 52.8672 5.13281C52.9453 5.25781 52.9922 5.39062 53.0078 5.53125C53.1641 5.67188 53.2891 5.82812 53.3828 6C53.4766 6.15625 53.4922 6.36719 53.4297 6.63281C53.2734 6.75781 53.1172 6.875 52.9609 6.98438C52.8203 7.07812 52.6641 7.16406 52.4922 7.24219C51.9141 7.10156 51.3281 7.05469 50.7344 7.10156C50.1406 7.14844 49.6094 7.1875 49.1406 7.21875C49 7.07812 48.8281 7.00781 48.625 7.00781C48.4375 7.00781 48.2344 7.03906 48.0156 7.10156C47.8125 7.16406 47.6016 7.22656 47.3828 7.28906C47.1797 7.35156 46.9844 7.36719 46.7969 7.33594C46.6406 7.46094 46.4453 7.54688 46.2109 7.59375C45.9922 7.625 45.75 7.65625 45.4844 7.6875C45.4688 7.76562 45.4844 7.82031 45.5312 7.85156C45.5781 7.86719 45.5859 7.91406 45.5547 7.99219C45.6484 8.10156 45.7656 8.17969 45.9062 8.22656C46.0625 8.27344 46.2188 8.32031 46.375 8.36719C46.5469 8.41406 46.6953 8.47656 46.8203 8.55469C46.9453 8.61719 47.0312 8.72656 47.0781 8.88281C47.3125 8.88281 47.5156 8.9375 47.6875 9.04688C47.8594 9.15625 48 9.28906 48.1094 9.44531C48.2188 9.60156 48.2969 9.77344 48.3438 9.96094C48.4062 10.1328 48.4375 10.2891 48.4375 10.4297C48.4844 10.5547 48.5391 10.6094 48.6016 10.5938C48.6641 10.5781 48.7344 10.6094 48.8125 10.6875C48.8594 10.8906 48.9766 11.1016 49.1641 11.3203C49.3516 11.5234 49.5 11.75 49.6094 12C49.6406 12.3906 49.6641 12.7422 49.6797 13.0547C49.6953 13.3516 49.6406 13.6562 49.5156 13.9688C49.2812 14.5469 48.9531 15.0625 48.5312 15.5156C48.125 15.9688 47.6562 16.375 47.125 16.7344C46.6094 17.0781 46.0547 17.375 45.4609 17.625C44.8672 17.875 44.2891 18.0859 43.7266 18.2578C43.6641 18.2422 43.6016 18.2422 43.5391 18.2578C43.4766 18.2734 43.4609 18.2344 43.4922 18.1406C43.3672 18.25 43.2266 18.3203 43.0703 18.3516C42.9297 18.3828 42.7734 18.3906 42.6016 18.375C42.4297 18.375 42.25 18.3672 42.0625 18.3516C41.8906 18.3359 41.7266 18.3438 41.5703 18.375C41.4609 18.2656 41.3594 18.1562 41.2656 18.0469C41.1875 17.9531 41.125 17.8281 41.0781 17.6719C41 17.6719 40.9609 17.6328 40.9609 17.5547C40.9766 17.4766 40.9531 17.4375 40.8906 17.4375C40.9844 17.2812 41.0234 17.1953 41.0078 17.1797C41.0078 17.1484 40.9844 17.125 40.9375 17.1094C40.9062 17.0938 40.875 17.0781 40.8438 17.0625C40.8125 17.0312 40.8047 16.9922 40.8203 16.9453C40.8828 16.8203 40.9062 16.6797 40.8906 16.5234C40.875 16.3516 40.8594 16.1797 40.8438 16.0078C40.8281 15.8359 40.8359 15.6719 40.8672 15.5156C40.9141 15.3594 41.0312 15.2344 41.2188 15.1406C41.75 15.2031 42.25 15.1875 42.7188 15.0938C43.2031 14.9844 43.6562 14.8359 44.0781 14.6484C44.5 14.4609 44.8984 14.2578 45.2734 14.0391C45.6641 13.8203 46.0469 13.625 46.4219 13.4531C46.4688 13.3125 46.5312 13.1953 46.6094 13.1016C46.7031 13.0078 46.7969 12.9219 46.8906 12.8438C46.9844 12.7656 47.0703 12.6797 47.1484 12.5859C47.2266 12.4922 47.2812 12.375 47.3125 12.2344C47.3281 12.125 47.2969 12.0625 47.2188 12.0469C47.1562 12.0156 47.125 11.9531 47.125 11.8594L46.8672 11.7891C46.5703 11.6172 46.2344 11.4766 45.8594 11.3672C45.4844 11.2422 45.1641 11.1094 44.8984 10.9688C44.7266 11.0625 44.5625 11.0859 44.4062 11.0391C44.2656 10.9922 44.0781 10.9453 43.8438 10.8984C43.3125 10.8672 42.7969 10.8125 42.2969 10.7344C41.8125 10.6562 41.3438 10.5156 40.8906 10.3125C40.8594 10.2344 40.8203 10.1641 40.7734 10.1016C40.7266 10.0391 40.6406 10.0234 40.5156 10.0547C40.4219 9.92969 40.3281 9.8125 40.2344 9.70312C40.1406 9.57812 40.0547 9.44531 39.9766 9.30469C40.0078 9.11719 40.0312 8.96094 40.0469 8.83594C40.0625 8.69531 40.0156 8.5625 39.9062 8.4375C39.9688 8.23438 40.0156 8.07031 40.0469 7.94531C40.0781 7.82031 40.0781 7.65625 40.0469 7.45312Z" fill="black"/>
</svg>
