<svg width="67" height="19" viewBox="0 0 67 19" fill="none" xmlns="http://www.w3.org/2000/svg">
<path d="M1.05469 11.3906C1.07031 11.3281 1.10156 11.3047 1.14844 11.3203C1.21094 11.3203 1.26562 11.3125 1.3125 11.2969C1.1875 11.1719 1.10938 11.0078 1.07812 10.8047C1.04688 10.5859 0.96875 10.4062 0.84375 10.2656C0.875 10.1875 0.898438 10.1094 0.914062 10.0312C0.945312 9.95312 1.01562 9.92188 1.125 9.9375C1.07812 9.59375 1.08594 9.27344 1.14844 8.97656C1.21094 8.67969 1.30469 8.39844 1.42969 8.13281C1.57031 7.86719 1.72656 7.60938 1.89844 7.35938C2.08594 7.09375 2.26562 6.82812 2.4375 6.5625C2.57812 6.53125 2.66406 6.54688 2.69531 6.60938C2.72656 6.65625 2.78125 6.64062 2.85938 6.5625C3.10938 6.39062 3.28125 6.20312 3.375 6C3.46875 5.78125 3.51562 5.54688 3.51562 5.29688C3.65625 4.89062 3.8125 4.49219 3.98438 4.10156C4.17188 3.69531 4.38281 3.32031 4.61719 2.97656C4.85156 2.63281 5.10156 2.33594 5.36719 2.08594C5.63281 1.82031 5.92188 1.61719 6.23438 1.47656C6.45312 1.28906 6.72656 1.11719 7.05469 0.960938C7.39844 0.804688 7.75781 0.6875 8.13281 0.609375C8.52344 0.515625 8.92188 0.46875 9.32812 0.46875C9.73438 0.453125 10.1094 0.492188 10.4531 0.585938C10.5312 0.617188 10.5781 0.601562 10.5938 0.539062C10.6094 0.460938 10.6484 0.421875 10.7109 0.421875C11.4922 0.515625 12.1875 0.671875 12.7969 0.890625C13.4219 1.10938 13.9531 1.41406 14.3906 1.80469C14.6875 2.27344 14.9688 2.78125 15.2344 3.32812C15.5 3.85938 15.7031 4.42188 15.8438 5.01562C16 5.59375 16.0703 6.19531 16.0547 6.82031C16.0391 7.44531 15.9062 8.07031 15.6562 8.69531C15.1094 9.38281 14.4453 9.9375 13.6641 10.3594C12.8828 10.7656 12.0391 11.1094 11.1328 11.3906C10.2422 11.6562 9.3125 11.875 8.34375 12.0469C7.39062 12.2188 6.46094 12.4062 5.55469 12.6094C5.57031 13.0312 5.57031 13.4844 5.55469 13.9688C5.53906 14.4375 5.48438 14.9141 5.39062 15.3984C5.3125 15.8672 5.1875 16.3281 5.01562 16.7812C4.85938 17.2344 4.64062 17.6562 4.35938 18.0469C4.04688 18.0312 3.71875 18.0625 3.375 18.1406C3.04688 18.2188 2.75 18.2969 2.48438 18.375C2.35938 18.2969 2.23438 18.2188 2.10938 18.1406C2 18.0781 1.85938 18.0391 1.6875 18.0234C1.73438 17.8359 1.6875 17.6406 1.54688 17.4375C1.42188 17.2344 1.28906 17.0391 1.14844 16.8516C1.02344 16.6484 0.9375 16.4531 0.890625 16.2656C0.859375 16.0625 0.953125 15.8828 1.17188 15.7266C1.04688 15.6172 0.984375 15.4453 0.984375 15.2109C1.04688 15.2734 1.125 15.3047 1.21875 15.3047C1.1875 15.0234 1.21875 14.6875 1.3125 14.2969C1.42188 13.9062 1.50781 13.5234 1.57031 13.1484C1.64844 12.7578 1.66406 12.4062 1.61719 12.0938C1.57031 11.7656 1.38281 11.5312 1.05469 11.3906ZM7.14844 5.90625C7.08594 6.07812 7.03125 6.23438 6.98438 6.375C6.95312 6.5 6.91406 6.61719 6.86719 6.72656C6.82031 6.83594 6.76562 6.94531 6.70312 7.05469C6.65625 7.16406 6.60156 7.28906 6.53906 7.42969C6.57031 7.52344 6.63281 7.59375 6.72656 7.64062C6.82031 7.6875 6.88281 7.75781 6.91406 7.85156C7.13281 7.74219 7.35156 7.66406 7.57031 7.61719C7.78906 7.55469 8.00781 7.50781 8.22656 7.47656C8.44531 7.44531 8.66406 7.40625 8.88281 7.35938C9.10156 7.3125 9.32812 7.23438 9.5625 7.125C9.79688 7.01562 10.0391 6.92969 10.2891 6.86719C10.5547 6.78906 10.8125 6.71094 11.0625 6.63281C11.3125 6.55469 11.5547 6.46875 11.7891 6.375C12.0234 6.26562 12.2266 6.125 12.3984 5.95312C12.1797 5.75 11.8516 5.57031 11.4141 5.41406C10.9766 5.25781 10.5 5.16406 9.98438 5.13281C9.48438 5.08594 8.97656 5.11719 8.46094 5.22656C7.96094 5.33594 7.52344 5.5625 7.14844 5.90625ZM29.1797 4.66406C29.2109 5.00781 29.2656 5.30469 29.3438 5.55469C29.4219 5.80469 29.5078 6.04688 29.6016 6.28125C29.6797 6.5 29.75 6.71875 29.8125 6.9375C29.8906 7.14062 29.9453 7.39062 29.9766 7.6875C29.8516 8.09375 29.7578 8.46875 29.6953 8.8125C29.6484 9.15625 29.5938 9.51562 29.5312 9.89062C29.2812 10.4375 29.0391 10.9219 28.8047 11.3438C28.5703 11.7656 28.3828 12.1328 28.2422 12.4453C28.1641 12.5234 28.0938 12.6172 28.0312 12.7266C27.9844 12.8203 27.9297 12.9219 27.8672 13.0312C27.8359 13.0781 27.7969 13.1484 27.75 13.2422C27.7031 13.3359 27.6641 13.3984 27.6328 13.4297L27.1641 13.2656L27.0703 13.8516L26.7422 13.9453L26.5078 14.2266C26.2109 14.7422 25.8984 15.1797 25.5703 15.5391C25.2422 15.8828 24.8672 16.1953 24.4453 16.4766C24.0391 16.7422 23.5703 16.9922 23.0391 17.2266C22.5234 17.4609 21.9375 17.7188 21.2812 18C21.0156 17.9688 20.7812 17.9531 20.5781 17.9531C20.3906 17.9375 20.2109 17.9219 20.0391 17.9062C19.7422 17.9062 19.375 17.8828 18.9375 17.8359C18.8906 17.7109 18.8203 17.625 18.7266 17.5781C18.6328 17.5312 18.5469 17.5078 18.4688 17.5078C18.2031 17.3828 18 17.2031 17.8594 16.9688C17.7344 16.7188 17.6094 16.4531 17.4844 16.1719C17.4062 16 17.3281 15.8438 17.25 15.7031C17.1719 15.5469 17.0859 15.3906 16.9922 15.2344L17.3906 15.1172L16.875 14.5547C16.8438 14.5078 16.8047 14.4688 16.7578 14.4375C16.7109 14.3906 16.6719 14.3438 16.6406 14.2969L16.6172 13.9219C16.5703 12.8438 16.5469 11.8594 16.5469 10.9688C16.5625 10.0625 16.6875 9.25781 16.9219 8.55469V8.29688C16.9688 7.95312 17.0156 7.67188 17.0625 7.45312C17.1094 7.21875 17.1484 7 17.1797 6.79688C17.2266 6.45312 17.2969 6.13281 17.3906 5.83594C17.6094 5.78906 17.7734 5.70312 17.8828 5.57812C17.9922 5.4375 18.0859 5.3125 18.1641 5.20312C18.3828 5.1875 18.5312 5.21875 18.6094 5.29688C18.6875 5.375 18.7656 5.5 18.8438 5.67188C18.9219 5.8125 19.0156 5.96875 19.125 6.14062C19.25 6.3125 19.4297 6.44531 19.6641 6.53906C19.6953 6.66406 19.7344 6.79688 19.7812 6.9375C19.8438 7.0625 19.9062 7.20312 19.9688 7.35938C20.0938 7.625 20.2031 7.90625 20.2969 8.20312C20.4062 8.48438 20.4688 8.75781 20.4844 9.02344C20.3281 9.32031 20.2031 9.66406 20.1094 10.0547C20.0312 10.4453 19.9766 10.8438 19.9453 11.25C19.9297 11.6406 19.9375 12.0234 19.9688 12.3984C20.0156 12.7578 20.0859 13.0625 20.1797 13.3125L20.3203 13.6172L20.7188 13.5703C21.1875 13.4453 21.6094 13.3125 21.9844 13.1719C22.375 13.0156 22.7344 12.8359 23.0625 12.6328C23.3906 12.4297 23.7031 12.1953 24 11.9297C24.2969 11.6484 24.6094 11.3281 24.9375 10.9688C25.2656 10.6094 25.5469 10.2031 25.7812 9.75C26.0312 9.28125 26.2344 8.79688 26.3906 8.29688C26.5625 7.79688 26.6875 7.30469 26.7656 6.82031C26.8594 6.32031 26.9219 5.85156 26.9531 5.41406C27.2188 5.32031 27.3516 5.13281 27.3516 4.85156L27.3047 4.59375C27.2422 4.5 27.2422 4.39062 27.3047 4.26562C27.3984 3.96875 27.6172 3.74219 27.9609 3.58594C28.2109 3.74219 28.4297 3.91406 28.6172 4.10156C28.8203 4.28906 29.0078 4.47656 29.1797 4.66406ZM33.1641 15.5625C32.9922 16.1875 32.8359 16.6641 32.6953 16.9922C32.5703 17.3047 32.375 17.6328 32.1094 17.9766C31.9062 17.9453 31.7656 17.9688 31.6875 18.0469C31.6094 18.125 31.5234 18.1953 31.4297 18.2578C31.2891 18.2891 31.1875 18.2891 31.125 18.2578C31.0625 18.2266 31.0078 18.1875 30.9609 18.1406C30.9141 18.1094 30.8516 18.0703 30.7734 18.0234C30.7109 17.9922 30.6094 17.9766 30.4688 17.9766C30.4375 17.8516 30.3984 17.7344 30.3516 17.625C30.3203 17.5156 30.2188 17.4766 30.0469 17.5078C30.0781 17.3828 30.0859 17.2812 30.0703 17.2031C30.0547 17.1094 30.0312 17.0312 30 16.9688C29.9844 16.8906 29.9688 16.8203 29.9531 16.7578C29.9375 16.6797 29.9453 16.5859 29.9766 16.4766C29.8984 16.4766 29.8359 16.4219 29.7891 16.3125C29.7422 16.2031 29.6875 16.0938 29.625 15.9844C29.6719 15.7031 29.7188 15.4375 29.7656 15.1875C29.8125 14.9375 29.8672 14.7031 29.9297 14.4844C30.0078 14.2656 30.0703 14.0469 30.1172 13.8281C30.1641 13.6094 30.1406 13.3828 30.0469 13.1484C30.1094 13.1953 30.1562 13.1875 30.1875 13.125C30.2188 13.0469 30.2422 12.9531 30.2578 12.8438C30.2734 12.7188 30.2812 12.6016 30.2812 12.4922C30.2812 12.3672 30.2734 12.2656 30.2578 12.1875C30.4141 11.7812 30.5391 11.3672 30.6328 10.9453C30.7422 10.5078 30.8359 10.0781 30.9141 9.65625C31.0078 9.23438 31.1016 8.82031 31.1953 8.41406C31.2891 8.00781 31.4141 7.63281 31.5703 7.28906C31.7422 7.25781 31.9297 7.28125 32.1328 7.35938C32.3516 7.42188 32.4844 7.50781 32.5312 7.61719C32.9375 7.30469 33.2969 6.92969 33.6094 6.49219C33.9219 6.03906 34.2422 5.60156 34.5703 5.17969C34.8984 4.75781 35.2578 4.38281 35.6484 4.05469C36.0547 3.72656 36.5625 3.53125 37.1719 3.46875C37.4844 3.70312 37.8281 3.94531 38.2031 4.19531C38.5938 4.42969 38.9141 4.74219 39.1641 5.13281C39.2891 5.19531 39.3906 5.26562 39.4688 5.34375C39.5625 5.40625 39.6719 5.47656 39.7969 5.55469V5.83594C39.9844 6.00781 40.1328 6.21094 40.2422 6.44531C40.3672 6.66406 40.4766 6.90625 40.5703 7.17188C40.6641 7.42188 40.7578 7.67969 40.8516 7.94531C40.9453 8.19531 41.0547 8.4375 41.1797 8.67188C41.1484 8.75 41.1328 8.82031 41.1328 8.88281C41.1328 8.92969 41.1406 8.98438 41.1562 9.04688C41.1875 9.10938 41.2109 9.17188 41.2266 9.23438C41.2422 9.29688 41.2422 9.38281 41.2266 9.49219C41.1797 10.1797 40.9531 10.7344 40.5469 11.1562C40.1562 11.5781 39.6797 11.9297 39.1172 12.2109C38.5547 12.4766 37.9531 12.7031 37.3125 12.8906C36.6719 13.0781 36.0938 13.2812 35.5781 13.5C35.5781 13.5625 35.6016 13.5938 35.6484 13.5938C35.7109 13.5938 35.7344 13.6328 35.7188 13.7109C36.0938 13.9453 36.3906 14.1328 36.6094 14.2734C36.8281 14.4141 37.0312 14.5312 37.2188 14.625C37.4219 14.7188 37.6328 14.8047 37.8516 14.8828C38.0859 14.9453 38.4062 15.0234 38.8125 15.1172C39.2188 15.2109 39.5312 15.2891 39.75 15.3516C39.9844 15.3984 40.1953 15.4453 40.3828 15.4922C40.5703 15.5234 40.7578 15.5547 40.9453 15.5859C41.1484 15.6016 41.4297 15.625 41.7891 15.6562C41.9297 15.7969 42.0469 15.9688 42.1406 16.1719C42.25 16.3594 42.3203 16.5547 42.3516 16.7578C42.3828 16.9453 42.3906 17.1328 42.375 17.3203C42.3594 17.4922 42.3047 17.6328 42.2109 17.7422C42.2266 17.7891 42.2578 17.8125 42.3047 17.8125C42.3672 17.7969 42.4297 17.7969 42.4922 17.8125C42.3984 17.875 42.3203 17.9531 42.2578 18.0469C42.1953 18.1406 42.1328 18.2344 42.0703 18.3281C42.0078 18.4219 41.9375 18.5 41.8594 18.5625C41.7812 18.6406 41.6719 18.6875 41.5312 18.7031C41.0469 18.8906 40.4375 18.8984 39.7031 18.7266C38.9688 18.5703 38.0391 18.2734 36.9141 17.8359C36.3516 17.6172 35.8906 17.4297 35.5312 17.2734C35.1875 17.1016 34.8828 16.9375 34.6172 16.7812C34.3672 16.6094 34.1328 16.4297 33.9141 16.2422C33.7109 16.0547 33.4609 15.8281 33.1641 15.5625ZM36.5156 7.52344C36.3438 7.77344 36.1484 8 35.9297 8.20312C35.7266 8.40625 35.5234 8.61719 35.3203 8.83594C35.1328 9.03906 34.9609 9.27344 34.8047 9.53906C34.6484 9.78906 34.5391 10.0859 34.4766 10.4297C35.0234 10.3672 35.5938 10.2188 36.1875 9.98438C36.7812 9.73438 37.3438 9.5 37.875 9.28125C37.8125 8.79688 37.6406 8.40625 37.3594 8.10938C37.0938 7.8125 36.8125 7.61719 36.5156 7.52344ZM42.75 7.45312C42.8594 7.125 43.0312 6.84375 43.2656 6.60938C43.5156 6.375 43.7812 6.17969 44.0625 6.02344C44.3594 5.85156 44.6641 5.71094 44.9766 5.60156C45.2891 5.49219 45.5859 5.39844 45.8672 5.32031C46.4922 5.05469 47.1562 4.80469 47.8594 4.57031C48.5781 4.32031 49.3047 4.10156 50.0391 3.91406C50.7891 3.72656 51.5547 3.60938 52.3359 3.5625C53.1172 3.5 53.9375 3.59375 54.7969 3.84375C54.8438 4 54.9141 4.14844 55.0078 4.28906C55.1016 4.42969 55.1953 4.57031 55.2891 4.71094C55.3984 4.85156 55.4922 4.99219 55.5703 5.13281C55.6484 5.25781 55.6953 5.39062 55.7109 5.53125C55.8672 5.67188 55.9922 5.82812 56.0859 6C56.1797 6.15625 56.1953 6.36719 56.1328 6.63281C55.9766 6.75781 55.8203 6.875 55.6641 6.98438C55.5234 7.07812 55.3672 7.16406 55.1953 7.24219C54.6172 7.10156 54.0312 7.05469 53.4375 7.10156C52.8438 7.14844 52.3125 7.1875 51.8438 7.21875C51.7031 7.07812 51.5312 7.00781 51.3281 7.00781C51.1406 7.00781 50.9375 7.03906 50.7188 7.10156C50.5156 7.16406 50.3047 7.22656 50.0859 7.28906C49.8828 7.35156 49.6875 7.36719 49.5 7.33594C49.3438 7.46094 49.1484 7.54688 48.9141 7.59375C48.6953 7.625 48.4531 7.65625 48.1875 7.6875C48.1719 7.76562 48.1875 7.82031 48.2344 7.85156C48.2812 7.86719 48.2891 7.91406 48.2578 7.99219C48.3516 8.10156 48.4688 8.17969 48.6094 8.22656C48.7656 8.27344 48.9219 8.32031 49.0781 8.36719C49.25 8.41406 49.3984 8.47656 49.5234 8.55469C49.6484 8.61719 49.7344 8.72656 49.7812 8.88281C50.0156 8.88281 50.2188 8.9375 50.3906 9.04688C50.5625 9.15625 50.7031 9.28906 50.8125 9.44531C50.9219 9.60156 51 9.77344 51.0469 9.96094C51.1094 10.1328 51.1406 10.2891 51.1406 10.4297C51.1875 10.5547 51.2422 10.6094 51.3047 10.5938C51.3672 10.5781 51.4375 10.6094 51.5156 10.6875C51.5625 10.8906 51.6797 11.1016 51.8672 11.3203C52.0547 11.5234 52.2031 11.75 52.3125 12C52.3438 12.3906 52.3672 12.7422 52.3828 13.0547C52.3984 13.3516 52.3438 13.6562 52.2188 13.9688C51.9844 14.5469 51.6562 15.0625 51.2344 15.5156C50.8281 15.9688 50.3594 16.375 49.8281 16.7344C49.3125 17.0781 48.7578 17.375 48.1641 17.625C47.5703 17.875 46.9922 18.0859 46.4297 18.2578C46.3672 18.2422 46.3047 18.2422 46.2422 18.2578C46.1797 18.2734 46.1641 18.2344 46.1953 18.1406C46.0703 18.25 45.9297 18.3203 45.7734 18.3516C45.6328 18.3828 45.4766 18.3906 45.3047 18.375C45.1328 18.375 44.9531 18.3672 44.7656 18.3516C44.5938 18.3359 44.4297 18.3438 44.2734 18.375C44.1641 18.2656 44.0625 18.1562 43.9688 18.0469C43.8906 17.9531 43.8281 17.8281 43.7812 17.6719C43.7031 17.6719 43.6641 17.6328 43.6641 17.5547C43.6797 17.4766 43.6562 17.4375 43.5938 17.4375C43.6875 17.2812 43.7266 17.1953 43.7109 17.1797C43.7109 17.1484 43.6875 17.125 43.6406 17.1094C43.6094 17.0938 43.5781 17.0781 43.5469 17.0625C43.5156 17.0312 43.5078 16.9922 43.5234 16.9453C43.5859 16.8203 43.6094 16.6797 43.5938 16.5234C43.5781 16.3516 43.5625 16.1797 43.5469 16.0078C43.5312 15.8359 43.5391 15.6719 43.5703 15.5156C43.6172 15.3594 43.7344 15.2344 43.9219 15.1406C44.4531 15.2031 44.9531 15.1875 45.4219 15.0938C45.9062 14.9844 46.3594 14.8359 46.7812 14.6484C47.2031 14.4609 47.6016 14.2578 47.9766 14.0391C48.3672 13.8203 48.75 13.625 49.125 13.4531C49.1719 13.3125 49.2344 13.1953 49.3125 13.1016C49.4062 13.0078 49.5 12.9219 49.5938 12.8438C49.6875 12.7656 49.7734 12.6797 49.8516 12.5859C49.9297 12.4922 49.9844 12.375 50.0156 12.2344C50.0312 12.125 50 12.0625 49.9219 12.0469C49.8594 12.0156 49.8281 11.9531 49.8281 11.8594L49.5703 11.7891C49.2734 11.6172 48.9375 11.4766 48.5625 11.3672C48.1875 11.2422 47.8672 11.1094 47.6016 10.9688C47.4297 11.0625 47.2656 11.0859 47.1094 11.0391C46.9688 10.9922 46.7812 10.9453 46.5469 10.8984C46.0156 10.8672 45.5 10.8125 45 10.7344C44.5156 10.6562 44.0469 10.5156 43.5938 10.3125C43.5625 10.2344 43.5234 10.1641 43.4766 10.1016C43.4297 10.0391 43.3438 10.0234 43.2188 10.0547C43.125 9.92969 43.0312 9.8125 42.9375 9.70312C42.8438 9.57812 42.7578 9.44531 42.6797 9.30469C42.7109 9.11719 42.7344 8.96094 42.75 8.83594C42.7656 8.69531 42.7188 8.5625 42.6094 8.4375C42.6719 8.23438 42.7188 8.07031 42.75 7.94531C42.7812 7.82031 42.7812 7.65625 42.75 7.45312ZM66.5859 4.80469C66.6016 4.91406 66.6016 5 66.5859 5.0625C66.5859 5.10938 66.5781 5.15625 66.5625 5.20312C66.5625 5.25 66.5625 5.30469 66.5625 5.36719C66.5625 5.41406 66.5781 5.49219 66.6094 5.60156C66.2812 6.13281 65.8984 6.5 65.4609 6.70312C65.0391 6.89062 64.5781 7.03125 64.0781 7.125C63.5781 7.20312 63.0625 7.28906 62.5312 7.38281C62.0156 7.47656 61.5 7.67969 60.9844 7.99219C60.7812 7.91406 60.5938 7.91406 60.4219 7.99219C60.2656 8.07031 60.0312 8.09375 59.7188 8.0625C59.625 8.15625 59.5078 8.22656 59.3672 8.27344C59.2266 8.30469 59.0859 8.34375 58.9453 8.39062C59.0078 8.53125 59.0312 8.67969 59.0156 8.83594C59.0156 8.97656 59.0391 9.09375 59.0859 9.1875C59.6328 9.23438 60.2344 9.22656 60.8906 9.16406C61.5625 9.10156 62.2188 9.0625 62.8594 9.04688C62.875 9.125 62.8672 9.17969 62.8359 9.21094C62.8047 9.22656 62.7969 9.26562 62.8125 9.32812C62.9219 9.40625 63.0312 9.50781 63.1406 9.63281C63.25 9.74219 63.3594 9.85156 63.4688 9.96094C63.5781 10.0703 63.6875 10.1641 63.7969 10.2422C63.9219 10.3047 64.0625 10.3281 64.2188 10.3125C64.2812 10.4375 64.3203 10.5781 64.3359 10.7344C64.3672 10.875 64.3516 11.0234 64.2891 11.1797C64.0391 11.3516 63.7891 11.5312 63.5391 11.7188C63.2891 11.8906 63.0234 12.0469 62.7422 12.1875C62.4766 12.3281 62.1875 12.4453 61.875 12.5391C61.5781 12.6172 61.2422 12.6484 60.8672 12.6328C60.7891 12.6328 60.7266 12.6328 60.6797 12.6328C60.6484 12.6328 60.6016 12.6094 60.5391 12.5625C60.4141 12.6406 60.2344 12.6641 60 12.6328C59.7812 12.6016 59.6094 12.625 59.4844 12.7031C59.3125 12.625 59.1016 12.5938 58.8516 12.6094C58.6172 12.6094 58.4062 12.5781 58.2188 12.5156C57.9688 12.8438 57.7422 13.1953 57.5391 13.5703C57.3359 13.9453 57.1562 14.3438 57 14.7656C57.5312 14.8438 57.9688 14.875 58.3125 14.8594C58.6719 14.8438 59.0078 14.8203 59.3203 14.7891C59.6328 14.7422 59.9531 14.7031 60.2812 14.6719C60.6094 14.625 61.0234 14.6094 61.5234 14.625C61.8359 14.4531 62.2031 14.3438 62.625 14.2969C63.0625 14.2344 63.4609 14.1406 63.8203 14.0156C63.9453 14.0625 64.0547 14.1484 64.1484 14.2734C64.2422 14.3828 64.3281 14.4922 64.4062 14.6016C64.5 14.6953 64.5938 14.7812 64.6875 14.8594C64.7812 14.9375 64.8984 14.9688 65.0391 14.9531C65.1016 15.0156 65.1406 15.0938 65.1562 15.1875C65.1875 15.2656 65.2109 15.3438 65.2266 15.4219C65.2422 15.5 65.2656 15.5703 65.2969 15.6328C65.3438 15.6797 65.4141 15.6953 65.5078 15.6797C65.2734 16.1953 65 16.5938 64.6875 16.875C64.3906 17.1406 64.0469 17.3438 63.6562 17.4844C63.2656 17.625 62.8281 17.7344 62.3438 17.8125C61.875 17.8906 61.3516 17.9844 60.7734 18.0938C60.6328 18.125 60.5156 18.1172 60.4219 18.0703C60.3281 18.0391 60.2188 18.0234 60.0938 18.0234C59.7344 18.1016 59.3047 18.1719 58.8047 18.2344C58.3047 18.2969 57.7969 18.3203 57.2812 18.3047C56.7656 18.2891 56.2734 18.2188 55.8047 18.0938C55.3359 17.9844 54.9531 17.7812 54.6562 17.4844C54.5312 17.375 54.4453 17.25 54.3984 17.1094C54.3672 16.9531 54.2656 16.8359 54.0938 16.7578C54.0781 16.5547 54.0469 16.3281 54 16.0781C53.9531 15.8281 53.9062 15.5703 53.8594 15.3047C53.8125 15.0234 53.7734 14.75 53.7422 14.4844C53.7266 14.2188 53.7422 13.9766 53.7891 13.7578C53.8359 13.5234 53.9297 13.3125 54.0703 13.125C54.2266 12.9375 54.2812 12.7344 54.2344 12.5156C54.3125 12.5 54.3594 12.4609 54.375 12.3984C54.3906 12.3203 54.4531 12.2891 54.5625 12.3047C54.6562 12.0234 54.7578 11.7578 54.8672 11.5078C54.9766 11.2578 55.0859 11.0156 55.1953 10.7812C55.3203 10.5469 55.4375 10.3125 55.5469 10.0781C55.6719 9.82812 55.7891 9.55469 55.8984 9.25781C55.6797 9.05469 55.5156 8.83594 55.4062 8.60156C55.3125 8.35156 55.2422 8.10938 55.1953 7.875C55.1484 7.625 55.1094 7.375 55.0781 7.125C55.0469 6.85938 54.9922 6.59375 54.9141 6.32812C55.0703 6.09375 55.2578 5.90625 55.4766 5.76562C55.7109 5.60938 55.9609 5.48438 56.2266 5.39062C56.4922 5.29688 56.7812 5.21875 57.0938 5.15625C57.4062 5.09375 57.7344 5.02344 58.0781 4.94531C58.7031 4.74219 59.2578 4.58594 59.7422 4.47656C60.2422 4.36719 60.7266 4.28125 61.1953 4.21875C61.6797 4.14062 62.1797 4.07031 62.6953 4.00781C63.2109 3.94531 63.7969 3.85156 64.4531 3.72656C64.5938 3.86719 64.7266 3.9375 64.8516 3.9375C64.9141 3.79688 64.9844 3.75781 65.0625 3.82031C65.1562 3.86719 65.1953 3.82031 65.1797 3.67969C65.3359 3.94531 65.5312 4.17188 65.7656 4.35938C66.0156 4.53125 66.2891 4.67969 66.5859 4.80469Z" fill="black"/>
</svg>
