<?xml version="1.0" standalone="no"?>
<!DOCTYPE svg PUBLIC "-//W3C//DTD SVG 20010904//EN"
 "http://www.w3.org/TR/2001/REC-SVG-20010904/DTD/svg10.dtd">
<svg version="1.0" xmlns="http://www.w3.org/2000/svg"
 width="280.000000pt" height="280.000000pt" viewBox="0 0 280.000000 280.000000"
 preserveAspectRatio="xMidYMid meet">
<metadata>
Created by potrace 1.11, written by Peter Selinger 2001-2013
</metadata>
<g transform="translate(0.000000,280.000000) scale(0.100000,-0.100000)"
fill="#000000" stroke="none">
<path d="M1670 2411 c-58 -21 -112 -41 -120 -44 -8 -3 -69 -24 -135 -46 -66
-22 -266 -90 -445 -151 -179 -61 -343 -118 -365 -125 -22 -7 -34 -14 -27 -15
6 -1 15 -3 20 -4 4 -1 36 -6 72 -10 36 -5 72 -10 80 -11 36 -6 150 -21 235
-30 33 -4 76 -10 95 -14 20 -4 44 -7 54 -5 23 3 1028 433 1041 445 5 5 -5 9
-25 10 -19 1 -39 2 -45 3 -5 1 -41 6 -80 10 -38 5 -79 10 -90 12 -11 3 -51 6
-90 9 -63 4 -81 0 -175 -34z"/>
<path d="M2140 2334 c-58 -25 -125 -54 -149 -65 -24 -11 -66 -29 -95 -40 -28
-11 -73 -31 -101 -43 -27 -13 -179 -78 -336 -145 l-286 -122 3 -107 c4 -150
13 -465 20 -747 4 -132 8 -278 9 -325 1 -47 4 -147 5 -224 l2 -138 41 40 c23
21 96 91 161 153 66 63 143 137 172 164 28 28 136 131 240 230 103 99 234 225
291 280 l103 100 6 160 c17 494 27 875 23 875 -2 0 -51 -21 -109 -46z m-30
-173 c0 -33 -3 -38 -22 -38 -13 -1 -42 -1 -66 -2 l-44 -1 8 -142 c4 -79 7
-152 8 -163 1 -17 8 -20 46 -20 41 0 45 -2 47 -25 3 -38 -6 -57 -25 -57 -67 0
-62 10 -55 -130 3 -71 6 -143 6 -160 0 -37 -1 -36 78 -33 56 1 56 1 63 -31 3
-18 3 -36 -1 -40 -11 -9 -163 -18 -168 -9 -4 6 -9 94 -20 315 -3 61 -8 144
-10 185 -3 56 -15 298 -17 340 -2 47 0 48 74 49 39 0 73 3 76 6 12 11 22 -9
22 -44z m-179 -398 c1 -10 2 -34 4 -53 6 -91 17 -389 16 -425 -4 -88 -61 -148
-116 -123 -56 25 -69 81 -80 338 -3 69 -8 158 -10 198 -4 66 -3 72 15 72 11 0
20 -6 21 -12 2 -34 8 -156 14 -273 3 -71 7 -152 10 -178 7 -88 56 -126 92 -71
18 28 19 62 7 289 -12 245 -12 255 8 255 10 0 18 -8 19 -17z m-466 -123 l0
-45 -52 -3 -51 -3 3 -82 c2 -45 7 -125 10 -177 3 -52 8 -144 10 -205 3 -60 7
-146 10 -190 3 -44 7 -133 11 -197 l6 -118 -26 0 c-18 0 -26 6 -27 18 -1 9 -2
31 -4 47 -1 17 -6 95 -9 175 -10 221 -15 307 -21 400 -3 47 -8 137 -11 200 -3
63 -7 117 -10 120 -3 3 -27 5 -52 5 l-47 0 0 45 0 45 64 3 c36 1 66 3 67 5 1
1 31 2 66 2 l63 0 0 -45z m46 -132 c0 -24 2 -68 4 -98 10 -150 26 -465 29
-545 1 -45 -1 -50 -21 -53 -19 -3 -23 2 -24 25 -1 15 -2 42 -4 60 -1 18 -6 99
-9 180 -4 81 -9 173 -11 203 -3 30 -7 103 -10 163 l-5 107 25 0 c23 0 25 -4
26 -42z m183 11 c37 -29 46 -57 51 -163 13 -249 10 -277 -40 -321 -13 -11 -23
-29 -23 -40 1 -47 -2 -56 -19 -53 -17 3 -19 8 -22 54 0 11 -12 27 -26 34 -50
27 -60 75 -67 326 -2 85 1 105 18 134 29 51 85 63 128 29z"/>
<path d="M1599 1468 c-17 -32 -8 -320 12 -370 19 -46 79 -44 94 3 13 39 -5
342 -21 367 -19 30 -69 30 -85 0z"/>
<path d="M555 1829 c3 -85 8 -176 10 -204 2 -27 6 -106 10 -175 3 -69 8 -159
10 -200 3 -41 7 -127 10 -190 3 -63 8 -153 10 -200 3 -47 7 -134 10 -195 4
-60 7 -110 8 -111 4 -4 528 -204 533 -204 1 0 0 39 -1 87 -2 49 -6 212 -10
363 -3 151 -8 329 -10 395 -2 66 -7 244 -10 395 -6 277 -7 306 -16 314 -5 5
-91 19 -184 31 -27 3 -96 12 -151 20 -56 8 -130 17 -164 21 l-62 6 7 -153z"/>
</g>
</svg>
