<svg width="800" height="800" viewBox="0 0 800 800" fill="none" xmlns="http://www.w3.org/2000/svg">
<path d="M341.5 745L329 259.5L668 115.5L657.5 442L341.5 745Z" fill="#DF8342" stroke="#79371D" stroke-width="5"/>
<path d="M326.5 262.5L141.5 238V228.5L523.5 98L667.5 116.5L326.5 262.5Z" fill="#DF8342" stroke="#79371D" stroke-width="5"/>
<path d="M325.5 263L140 238L163 681.5L338 748.5L325.5 263Z" fill="#DF8342" stroke="#79371D" stroke-width="5"/>
<path d="M319.979 254.618L153.248 237.355C144.928 236.494 139.759 246.165 145.098 252.604C146.639 254.462 148.84 255.651 151.239 255.922L298.528 272.544C303.409 273.095 307.168 277.11 307.396 282.017L328.057 726.464C328.305 731.801 332.704 736 338.046 736H342.477C348.2 736 352.756 731.206 352.464 725.491L328.936 264.055C328.685 259.132 324.883 255.126 319.979 254.618Z" fill="#C96721" stroke="#604346" stroke-width="5"/>
<path d="M274.693 707.092L253.302 261.29C253.138 257.866 255.869 255 259.297 255C262.493 255 265.128 257.504 265.292 260.695L288.137 706.425C288.335 710.272 285.268 713.5 281.415 713.5C277.824 713.5 274.865 710.68 274.693 707.092Z" fill="#C96721" stroke="#604346" stroke-width="5"/>
<path d="M159.605 669.964L132.592 257.674C132.213 251.882 139.211 248.711 143.315 252.815C144.401 253.901 145.052 255.346 145.146 256.878L169.597 656.409C169.841 660.407 172.447 663.873 176.22 665.217L333.076 721.14C338.28 722.995 340.993 728.719 339.135 733.923L336.123 742.355C334.167 747.831 327.968 750.49 322.652 748.133L165.529 678.452C162.13 676.945 159.848 673.675 159.605 669.964Z" fill="#C96721" stroke="#604346" stroke-width="5"/>
<path d="M623.203 105.113L277.791 236.838C275.055 237.881 275.17 241.79 277.962 242.672C278.634 242.884 279.358 242.86 280.015 242.605L624.445 108.335C626.224 107.641 625.727 105 623.818 105C623.608 105 623.399 105.038 623.203 105.113Z" fill="#C96721" stroke="#604346" stroke-width="5"/>
<path d="M654.226 438.583L663.761 125.833C663.821 123.87 666.483 123.322 667.314 125.101C667.436 125.363 667.496 125.651 667.488 125.94L659.021 438.721C659.007 439.227 658.834 439.716 658.525 440.118C657.106 441.963 654.155 440.909 654.226 438.583Z" fill="#C96721" stroke="#604346" stroke-width="5"/>
<path d="M136.618 228.747L186.562 208.684C189.92 207.335 193.745 207.906 196.563 210.176L201.329 214.015C205.96 217.745 206.331 224.669 202.127 228.873L201.87 229.13C201.292 229.708 200.787 230.355 200.367 231.056L193.425 242.625C192.493 244.179 192 245.957 192 247.77V271.858C192 274.51 190.946 277.054 189.071 278.929L176.649 291.351C176.217 291.783 175.826 292.253 175.48 292.757L172.503 297.087C171.207 298.972 169.304 300.356 167.112 301.007L144.682 307.676C138.804 309.423 132.752 305.517 131.924 299.441L124.975 248.482C124.668 246.228 125.138 243.937 126.308 241.986L131.771 232.882C132.893 231.012 134.595 229.56 136.618 228.747Z" fill="#F0C6A8" stroke="#604346" stroke-width="5"/>
<path d="M156.5 674.087V629.179C156.5 625.441 160.452 623.024 163.779 624.728L176.448 631.217C176.815 631.405 177.157 631.637 177.466 631.909L200.925 652.495C201.306 652.83 201.634 653.22 201.898 653.654L214.954 675.103C215.314 675.694 215.547 676.355 215.639 677.041L218.466 698.248C218.949 701.866 215.517 704.765 212.03 703.684L170.82 690.909C169.956 690.641 169.181 690.144 168.578 689.471L157.777 677.425C156.955 676.507 156.5 675.319 156.5 674.087Z" fill="#F0C6A8" stroke="#604346" stroke-width="5"/>
<path d="M278.522 708.188L276.543 723.456C275.935 728.144 278.694 732.618 283.156 734.18L332.397 751.414C334.413 752.119 336.601 752.161 338.642 751.533L346.219 749.202C347.719 748.74 349.089 747.933 350.218 746.844L386.94 711.45C388.895 709.565 390 706.966 390 704.25V702.24C390 700.447 389.517 698.686 388.603 697.142L376.905 677.402C375.104 674.363 371.834 672.5 368.302 672.5H362.339C360.483 672.5 358.664 673.017 357.084 673.992L344.916 681.508C343.336 682.483 341.517 683 339.661 683H328.484C326.853 683 325.246 683.399 323.805 684.162L319.695 686.338C318.254 687.101 316.647 687.5 315.016 687.5H301.821C299.36 687.5 296.986 688.407 295.153 690.048L281.771 702.021C279.983 703.62 278.83 705.809 278.522 708.188Z" fill="#F0C6A8" stroke="#604346" stroke-width="5"/>
<path d="M254.908 263.05L258.696 240.322C259.46 235.74 263.278 232.287 267.913 231.987L351.063 226.593C352.016 226.531 352.973 226.606 353.905 226.816L370.576 230.567C371.846 230.853 373.049 231.384 374.116 232.131L378.235 235.014C380.908 236.886 382.5 239.943 382.5 243.207V263.877C382.5 264.952 382.327 266.02 381.987 267.04L375.243 287.272C375.081 287.756 374.883 288.228 374.649 288.683L358.006 321.044C357.343 322.333 356.408 323.462 355.266 324.353L340.094 336.195C337.811 337.977 334.868 338.682 332.026 338.127L317.392 335.272C316.468 335.091 315.575 334.782 314.739 334.352L281.262 317.161C279.778 316.399 278.508 315.278 277.568 313.899L264.784 295.15C264.264 294.387 263.852 293.556 263.56 292.679L255.285 267.856C254.77 266.309 254.64 264.659 254.908 263.05Z" fill="#F0C6A8" stroke="#604346" stroke-width="5"/>
<path d="M659.526 440.791L660.821 405.825C660.887 404.045 658.767 403.073 657.462 404.286L647.435 413.596C647.151 413.86 646.95 414.2 646.856 414.576L638 450L636.045 462.705C635.741 464.683 638.209 465.832 639.527 464.326L659.033 442.034C659.335 441.689 659.509 441.25 659.526 440.791Z" fill="#F0C6A8" stroke="#604346" stroke-width="5"/>
<path d="M631.833 106.271L618.76 101.789C616.737 101.096 614.555 102.282 614.036 104.356C613.707 105.674 614.136 107.066 615.152 107.968L616.996 109.608C617.654 110.192 618.454 110.593 619.316 110.769L638.597 114.713C639.514 114.901 640.36 115.342 641.038 115.987L648.444 123.022C649.437 123.966 650 125.276 650 126.647V143.82C650 144.596 650.181 145.361 650.528 146.056L655.183 155.366C655.393 155.786 655.662 156.175 655.981 156.521L666.095 167.477C666.967 168.423 668.27 168.846 669.532 168.594C671.258 168.248 672.5 166.733 672.5 164.973V119.647C672.5 118.276 671.937 116.966 670.944 116.022L663.843 109.276C662.977 108.453 661.843 107.967 660.649 107.907L633.205 106.535C632.737 106.512 632.275 106.423 631.833 106.271Z" fill="#F0C6A8" stroke="#604346" stroke-width="5"/>
<path d="M564.415 100.939L521.431 98.5242C521.147 98.5083 520.863 98.5532 520.597 98.6559L500.733 106.345C498.641 107.155 499.262 110.266 501.505 110.21L549.279 109.006C549.426 109.002 549.572 108.982 549.714 108.946L564.939 105.14C566.224 104.819 566.848 103.358 566.19 102.208L566.039 101.944C565.703 101.355 565.092 100.977 564.415 100.939Z" fill="#F0C6A8" stroke="#604346" stroke-width="5"/>
<path d="M373.646 171.314L386 165.5L389.895 163.413C395.953 160.168 399.312 153.461 398.283 146.665C397.774 143.307 398.331 139.873 399.876 136.847L404.091 128.594C407.636 121.65 412.923 115.746 419.434 111.458L424.949 107.826C428.304 105.617 431.913 103.82 435.698 102.474L444.374 99.3893C449.752 97.4772 455.417 96.5 461.124 96.5H467.208C472 96.5 476.722 97.6468 480.98 99.8445C486.831 102.864 491.527 107.723 494.345 113.673L498.692 122.851C498.897 123.283 499.068 123.73 499.204 124.189L500.54 128.697C501.732 132.721 506.571 134.322 509.928 131.804C511.802 130.399 514.32 130.207 516.385 131.313L519.707 133.093C523.81 135.291 525.502 140.295 523.576 144.532C522.57 146.745 520.696 148.446 518.395 149.233L515.118 150.354C507.956 152.805 500.038 150.18 495.757 143.937L493.252 140.284C491.762 138.111 490.662 135.696 490.001 133.146L488.088 125.769C487.697 124.26 487.158 122.793 486.479 121.39L485.966 120.33C482.318 112.79 474.679 108 466.302 108C461.872 108 457.547 109.347 453.9 111.862L447.863 116.026C445.958 117.339 444.177 118.823 442.541 120.459C436.674 126.326 432.878 133.945 431.727 142.163L430 154.5V163.669C430 165.876 429.659 168.071 428.99 170.175C427.387 175.213 423.979 179.483 419.422 182.164L415.344 184.562C411.486 186.832 407.217 188.312 402.782 188.919L370.855 193.288C366.172 193.929 362 190.289 362 185.563C362 183.898 362.533 182.277 363.52 180.937L365.954 177.634C367.953 174.921 370.597 172.749 373.646 171.314Z" fill="#F0C6A8" stroke="#604346" stroke-width="5"/>
</svg>
