<svg width="24" height="25" viewBox="0 0 24 25" fill="none" xmlns="http://www.w3.org/2000/svg">
    <g clip-path="url(#clip0_591_258)">
    <path fill-rule="evenodd" clip-rule="evenodd" d="M23.9999 12.0019C23.9999 18.6289 18.6269 24.0019 11.9971 24.0029C5.37205 24.0029 -0.000959637 18.6289 5.14574e-07 12.001C-0.00191979 5.37302 5.37109 0 11.999 0C18.6269 0 23.9999 5.37398 23.9999 12.0019ZM16.7211 9.0619C16.5665 7.4546 15.1791 6.91596 13.4258 6.76233V4.53189H12.0692V6.7028C11.7129 6.7028 11.3481 6.70952 10.9861 6.7172V4.53189H9.62942L9.62846 6.76041L9.61384 6.7607C9.32507 6.76636 9.04098 6.77193 8.76433 6.77193V6.76521L6.893 6.76425V8.21409C6.893 8.21409 7.89539 8.19488 7.87811 8.21313C8.42827 8.21313 8.60686 8.5319 8.65871 8.80746V11.348C8.65935 11.348 8.65999 11.348 8.66064 11.348V11.3576H8.65871L8.65775 14.9169C8.63375 15.0898 8.53197 15.3653 8.14791 15.3663C8.16519 15.3816 7.16184 15.3663 7.16184 15.3663L6.89204 16.987H8.65871C8.85794 16.987 9.0554 16.9891 9.25066 16.9912H9.25091C9.3774 16.9926 9.50297 16.994 9.6275 16.9947L9.62846 19.2501H10.9842V17.0187C11.3558 17.0264 11.7158 17.0293 12.0682 17.0293L12.0672 19.2501H13.4239V16.9995C15.7052 16.8689 17.3039 16.2938 17.5017 14.1507C17.662 12.4253 16.8507 11.6543 15.5555 11.3432C16.3437 10.9438 16.8363 10.2381 16.7211 9.0619ZM11.2775 15.3805H11.2775L11.2774 15.3805C11.1789 15.3791 11.0909 15.3778 11.0159 15.3778V12.3888C11.1096 12.389 11.2238 12.3865 11.3532 12.3836H11.3532C12.4945 12.3579 14.8219 12.3057 14.8219 13.8838C14.8219 15.4316 12.3878 15.3965 11.2775 15.3805ZM14.1901 9.66776C14.1901 11.0716 12.1718 11.0397 11.2428 11.025C11.1571 11.0237 11.0806 11.0225 11.0159 11.0225V8.31298C11.0936 8.31298 11.1881 8.31048 11.2952 8.30765H11.2952C12.2461 8.28248 14.191 8.23101 14.1901 9.66776Z" fill="white"/>
    </g>
    <defs>
    <clipPath id="clip0_591_258">
    <rect width="24" height="24.0038" fill="white"/>
    </clipPath>
    </defs>
</svg>
