<svg width="220" height="237" viewBox="0 0 220 237" fill="none" xmlns="http://www.w3.org/2000/svg">
<g filter="url(#filter0_d)">
<path d="M46.192 222.672C46.192 220.176 45.712 218.928 44.752 218.928L38.128 222.096C38.128 220.752 37.36 219.792 35.824 219.216L33.52 218.928C31.984 218.928 30.064 219.6 27.76 220.944C27.376 219.984 26.896 219.024 26.32 218.064C25.744 217.104 25.264 216.24 24.88 215.472C22.384 210.672 19.888 205.392 17.392 199.632C15.088 193.68 12.88 188.016 10.768 182.64C8.848 177.264 7.312 173.04 6.16 169.968C5.392 167.472 4.528 163.728 3.568 158.736C2.608 153.744 1.648 147.408 0.688001 139.728C2.8 141.072 4.432 141.744 5.584 141.744C6.928 141.744 8.176 139.728 9.328 135.696C9.904 136.464 10.96 136.848 12.496 136.848C13.648 136.848 14.512 136.464 15.088 135.696L19.696 128.784L24.88 130.512H25.168C25.552 130.512 25.936 130.32 26.32 129.936C26.704 129.552 27.28 129.168 28.048 128.784C29.584 127.824 30.736 127.344 31.504 127.344L32.368 127.632C37.168 129.936 40.24 134.16 41.584 140.304C45.04 154.896 48.496 162.192 51.952 162.192C55.408 162.192 59.44 158.544 64.048 151.248C66.352 147.6 68.656 143.376 70.96 138.576C73.456 133.776 75.952 128.4 78.448 122.448C78.832 124.752 79.216 125.904 79.6 125.904C80.56 125.904 82.192 123.504 84.496 118.704C86.992 113.904 90.928 107.28 96.304 98.832C99.376 93.648 103.216 87.792 107.824 81.264C112.624 74.736 117.712 68.016 123.088 61.104C128.464 54.192 133.648 47.664 138.64 41.52C143.824 35.376 148.432 30.096 152.464 25.68C156.496 21.264 159.472 18.384 161.392 17.04C168.688 12.048 174.448 7.24799 178.672 2.63999C178.48 3.98399 178.192 5.23199 177.808 6.384C177.616 7.34399 177.52 8.01599 177.52 8.39999C177.52 9.16799 177.904 9.55199 178.672 9.55199L186.736 5.51999V6.67199C186.736 8.20799 187.12 8.976 187.888 8.976C188.464 8.976 189.616 8.112 191.344 6.384C193.072 4.65599 194.032 3.40799 194.224 2.63999L193.648 6.67199L203.44 0.911997L201.136 6.096C204.208 3.98399 206.416 2.92799 207.76 2.92799C208.528 2.92799 209.104 3.40799 209.488 4.36799C209.872 5.13599 210.064 5.90399 210.064 6.67199C210.064 7.82399 209.584 9.16799 208.624 10.704C207.664 12.24 206.416 14.064 204.88 16.176C203.728 17.712 201.808 20.016 199.12 23.088C196.624 25.968 192.784 30.288 187.6 36.048C182.416 41.616 175.504 49.392 166.864 59.376C164.56 61.872 161.008 66.288 156.208 72.624C151.408 78.768 145.936 85.968 139.792 94.224C133.84 102.288 127.888 110.448 121.936 118.704C115.984 126.96 110.704 134.448 106.096 141.168C101.488 147.696 98.224 152.592 96.304 155.856L78.448 186.096C74.608 192.624 71.44 198 68.944 202.224C66.448 206.256 64.528 209.04 63.184 210.576C60.304 214.032 57.136 217.104 53.68 219.792L51.088 218.352L48.784 219.792L46.192 222.672Z" fill="black"/>
</g>
<defs>
<filter id="filter0_d" x="0.687988" y="0.911995" width="218.376" height="235.76" filterUnits="userSpaceOnUse" color-interpolation-filters="sRGB">
<feFlood flood-opacity="0" result="BackgroundImageFix"/>
<feColorMatrix in="SourceAlpha" type="matrix" values="0 0 0 0 0 0 0 0 0 0 0 0 0 0 0 0 0 0 127 0"/>
<feOffset dx="5" dy="10"/>
<feGaussianBlur stdDeviation="2"/>
<feColorMatrix type="matrix" values="0 0 0 0 0.956863 0 0 0 0 0.772549 0 0 0 0 0.113725 0 0 0 0.5 0"/>
<feBlend mode="normal" in2="BackgroundImageFix" result="effect1_dropShadow"/>
<feBlend mode="normal" in="SourceGraphic" in2="effect1_dropShadow" result="shape"/>
</filter>
</defs>
</svg>
