<svg width="21" height="49" viewBox="0 0 21 49" fill="none" xmlns="http://www.w3.org/2000/svg">
<path d="M18.1364 11.1364V36.75C18.1364 41.6723 14.7191 45.6591 10.5 45.6591C6.28091 45.6591 2.86364 41.6723 2.86364 36.75V8.90909C2.86364 5.83545 5.00182 3.34091 7.63636 3.34091C10.2709 3.34091 12.4091 5.83545 12.4091 8.90909V32.2955C12.4091 33.5205 11.55 34.5227 10.5 34.5227C9.45 34.5227 8.59091 33.5205 8.59091 32.2955V11.1364H5.72727V32.2955C5.72727 35.3691 7.86545 37.8636 10.5 37.8636C13.1345 37.8636 15.2727 35.3691 15.2727 32.2955V8.90909C15.2727 3.98682 11.8555 0 7.63636 0C3.41727 0 0 3.98682 0 8.90909V36.75C0 43.5209 4.69636 49 10.5 49C16.3036 49 21 43.5209 21 36.75V11.1364H18.1364Z" fill="#B0B0B0"/>
<path d="M18.1364 11.1364V36.75C18.1364 41.6723 14.7191 45.6591 10.5 45.6591C6.28091 45.6591 2.86364 41.6723 2.86364 36.75V8.90909C2.86364 5.83545 5.00182 3.34091 7.63636 3.34091C10.2709 3.34091 12.4091 5.83545 12.4091 8.90909V32.2955C12.4091 33.5205 11.55 34.5227 10.5 34.5227C9.45 34.5227 8.59091 33.5205 8.59091 32.2955V11.1364H5.72727V32.2955C5.72727 35.3691 7.86545 37.8636 10.5 37.8636C13.1345 37.8636 15.2727 35.3691 15.2727 32.2955V8.90909C15.2727 3.98682 11.8555 0 7.63636 0C3.41727 0 0 3.98682 0 8.90909V36.75C0 43.5209 4.69636 49 10.5 49C16.3036 49 21 43.5209 21 36.75V11.1364H18.1364Z" fill="url(#paint0_linear)"/>
<defs>
<linearGradient id="paint0_linear" x1="10.5" y1="0" x2="10.5" y2="49" gradientUnits="userSpaceOnUse">
<stop stop-color="#F4C51D"/>
<stop offset="1" stop-color="#F4C51D" stop-opacity="0.5"/>
</linearGradient>
</defs>
</svg>
