<svg width="124" height="19" viewBox="0 0 124 19" fill="none" xmlns="http://www.w3.org/2000/svg">
<path d="M6.22266 18.0938C5.53516 18.1875 4.91016 18.1562 4.34766 18C3.78516 17.8438 3.27734 17.6016 2.82422 17.2734C2.38672 16.9453 2.00391 16.5547 1.67578 16.1016C1.36328 15.6484 1.10547 15.1641 0.902344 14.6484C0.761719 13.5859 0.800781 12.625 1.01953 11.7656C1.23828 10.8906 1.55859 10.0859 1.98047 9.35156C2.40234 8.61719 2.87891 7.92969 3.41016 7.28906C3.95703 6.64844 4.48047 6.03125 4.98047 5.4375C5.08984 5.48438 5.17578 5.48438 5.23828 5.4375C5.31641 5.39062 5.37891 5.32812 5.42578 5.25C5.48828 5.17188 5.55078 5.09375 5.61328 5.01562C5.69141 4.9375 5.77734 4.88281 5.87109 4.85156C5.93359 4.71094 6.01172 4.59375 6.10547 4.5C6.21484 4.40625 6.32422 4.32031 6.43359 4.24219C6.55859 4.14844 6.66797 4.05469 6.76172 3.96094C6.87109 3.86719 6.96484 3.75 7.04297 3.60938C7.19922 3.57812 7.33203 3.52344 7.44141 3.44531C7.56641 3.36719 7.67578 3.28125 7.76953 3.1875C7.87891 3.09375 7.98828 3.00781 8.09766 2.92969C8.20703 2.85156 8.33984 2.78906 8.49609 2.74219V2.4375C8.83984 2.28125 9.08984 2.10938 9.24609 1.92188C9.40234 1.73438 9.58984 1.49219 9.80859 1.19531C9.98047 1.17969 10.1133 1.17188 10.207 1.17188C10.3164 1.17188 10.4805 1.15625 10.6992 1.125C10.8398 0.859375 10.9727 0.664062 11.0977 0.539062C11.2227 0.414062 11.4023 0.273438 11.6367 0.117188C11.8711 0.242188 12.1211 0.320312 12.3867 0.351562C12.6523 0.367188 12.8945 0.484375 13.1133 0.703125C13.1289 0.890625 13.1836 1.03906 13.2773 1.14844C13.3711 1.24219 13.4727 1.33594 13.582 1.42969C13.6914 1.50781 13.8008 1.59375 13.9102 1.6875C14.0195 1.78125 14.0898 1.91406 14.1211 2.08594C14.1992 2.08594 14.2461 2.07031 14.2617 2.03906C14.293 2.00781 14.3477 2 14.4258 2.01562C14.457 2.14062 14.4883 2.24219 14.5195 2.32031C14.5508 2.39844 14.582 2.46875 14.6133 2.53125C14.6602 2.59375 14.6992 2.66406 14.7305 2.74219C14.7773 2.82031 14.8164 2.91406 14.8477 3.02344C14.7695 3.21094 14.6992 3.41406 14.6367 3.63281C14.5742 3.83594 14.4492 3.97656 14.2617 4.05469C14.2617 4.17969 14.3086 4.25 14.4023 4.26562C14.4961 4.26562 14.5508 4.32031 14.5664 4.42969C14.582 4.57031 14.5586 4.6875 14.4961 4.78125C14.9336 5.51562 15.332 6.28906 15.6914 7.10156C16.0508 7.89844 16.457 8.66406 16.9102 9.39844C16.8789 9.61719 16.8867 9.83594 16.9336 10.0547C16.9961 10.2578 17.0664 10.4609 17.1445 10.6641C17.2383 10.8672 17.3242 11.0703 17.4023 11.2734C17.4805 11.4766 17.5352 11.6797 17.5664 11.8828C17.5977 12.1484 17.5977 12.4375 17.5664 12.75C17.5352 13.0469 17.4727 13.3359 17.3789 13.6172C17.2852 13.8984 17.1602 14.1641 17.0039 14.4141C16.8477 14.6484 16.668 14.8281 16.4648 14.9531C16.2148 15.2656 15.9023 15.5234 15.5273 15.7266C15.1523 15.9141 14.8086 16.1406 14.4961 16.4062C14.2773 16.5312 14.043 16.625 13.793 16.6875C13.543 16.7344 13.2852 16.7891 13.0195 16.8516C12.8164 16.9766 12.5742 17.1016 12.293 17.2266C12.0117 17.3359 11.7227 17.4375 11.4258 17.5312C11.1289 17.625 10.832 17.7031 10.5352 17.7656C10.2383 17.8125 9.97266 17.8203 9.73828 17.7891C9.17578 17.9922 8.62891 18.1328 8.09766 18.2109C7.56641 18.2891 6.94141 18.25 6.22266 18.0938ZM6.52734 9.5625C6.37109 9.92188 6.18359 10.25 5.96484 10.5469C5.76172 10.8281 5.55859 11.1172 5.35547 11.4141C5.15234 11.7109 4.97266 12.0312 4.81641 12.375C4.67578 12.7031 4.59766 13.0938 4.58203 13.5469C4.89453 13.8125 5.26172 13.9766 5.68359 14.0391C6.12109 14.0859 6.56641 14.0938 7.01953 14.0625C7.47266 14.0156 7.92578 13.9531 8.37891 13.875C8.83203 13.7969 9.23828 13.7578 9.59766 13.7578C9.59766 13.6172 9.66016 13.5469 9.78516 13.5469C10.4414 13.4844 11.0508 13.3047 11.6133 13.0078C12.1758 12.6953 12.7617 12.3828 13.3711 12.0703C13.4492 11.8828 13.5508 11.7188 13.6758 11.5781C13.8008 11.4375 13.8711 11.2344 13.8867 10.9688C13.8086 10.8281 13.7539 10.7109 13.7227 10.6172C13.707 10.5234 13.6992 10.3828 13.6992 10.1953C13.293 9.63281 12.9414 9.02344 12.6445 8.36719C12.3477 7.69531 12.0039 7.0625 11.6133 6.46875C11.582 6.54688 11.5195 6.625 11.4258 6.70312C11.332 6.78125 11.2305 6.76562 11.1211 6.65625C11.0742 6.8125 11.0039 6.92188 10.9102 6.98438C10.8164 7.03125 10.707 7.05469 10.582 7.05469C10.4727 7.05469 10.3555 7.03125 10.2305 6.98438C10.1211 6.9375 10.0195 6.875 9.92578 6.79688C9.37891 7.23438 8.83203 7.65625 8.28516 8.0625C7.75391 8.46875 7.26953 8.94531 6.83203 9.49219C6.75391 9.53906 6.70703 9.55469 6.69141 9.53906C6.67578 9.52344 6.62109 9.53125 6.52734 9.5625ZM31.6289 18.3047C31.082 18.0547 30.6445 17.6875 30.3164 17.2031C30.0039 16.7188 29.6914 16.1797 29.3789 15.5859C29.332 15.4922 29.2852 15.3984 29.2383 15.3047C29.1914 15.2109 29.1445 15.125 29.0977 15.0469L28.7695 14.4375L28.582 14.0625L28.3008 14.3203L27.8789 14.6953L27.6445 14.9297C27.2383 15.3047 26.8242 15.6797 26.4023 16.0547C25.9961 16.4141 25.5586 16.7422 25.0898 17.0391C24.6367 17.3203 24.1523 17.5547 23.6367 17.7422C23.1367 17.9141 22.5898 18.0078 21.9961 18.0234L21.4805 17.7656C21.1836 17.6094 20.9336 17.4688 20.7305 17.3438C20.5273 17.2188 20.293 17.0234 20.0273 16.7578C19.9492 16.6172 19.8789 16.4844 19.8164 16.3594C19.7695 16.2344 19.7148 16.1094 19.6523 15.9844C19.4805 15.6719 19.3398 15.3906 19.2305 15.1406C19.1211 14.8906 19.0117 14.6094 18.9023 14.2969C18.9492 14.0781 19.0195 13.7109 19.1133 13.1953C19.207 12.6641 19.3164 12.0859 19.4414 11.4609C19.582 10.8359 19.7227 10.2109 19.8633 9.58594C20.0195 8.94531 20.1758 8.39062 20.332 7.92188C20.4727 7.51562 20.6289 7.08594 20.8008 6.63281C20.9883 6.17969 21.1836 5.76562 21.3867 5.39062C21.6055 5 21.8398 4.67188 22.0898 4.40625C22.3398 4.125 22.6055 3.96094 22.8867 3.91406C22.9648 4.02344 23.0508 4.10156 23.1445 4.14844C23.2383 4.19531 23.3242 4.23438 23.4023 4.26562C23.6211 4.57812 23.832 4.84375 24.0352 5.0625C24.2539 5.28125 24.5039 5.5 24.7852 5.71875C24.707 6.10938 24.5898 6.54688 24.4336 7.03125C24.293 7.5 24.1367 7.97656 23.9648 8.46094C23.8086 8.92969 23.6523 9.39062 23.4961 9.84375C23.3398 10.2969 23.2148 10.6875 23.1211 11.0156C23.0273 11.2812 22.9492 11.5781 22.8867 11.9062C22.7461 12.4844 22.6133 13.2734 22.4883 14.2734C22.6758 14.2266 22.8789 14.125 23.0977 13.9688C23.3164 13.8125 23.5273 13.6484 23.7305 13.4766C23.9648 13.2891 24.1992 13.0781 24.4336 12.8438C24.7305 12.5469 24.9805 12.2734 25.1836 12.0234C25.3867 11.7734 25.5742 11.5156 25.7461 11.25C25.9336 10.9844 26.1211 10.6953 26.3086 10.3828C26.4961 10.0547 26.7227 9.67188 26.9883 9.23438C27.2227 8.85938 27.4648 8.46094 27.7148 8.03906C27.9805 7.60156 28.2383 7.1875 28.4883 6.79688C28.7539 6.39062 29.0117 6.02344 29.2617 5.69531C29.5117 5.36719 29.7383 5.10938 29.9414 4.92188C30.0664 5.07812 30.2227 5.22656 30.4102 5.36719C30.6133 5.50781 30.8242 5.61719 31.043 5.69531C31.1367 5.83594 31.2227 5.96875 31.3008 6.09375C31.3945 6.20312 31.4805 6.30469 31.5586 6.39844C31.6523 6.53906 31.7383 6.67188 31.8164 6.79688C31.9102 6.92188 31.9961 7.04688 32.0742 7.17188C32.0586 7.28125 32.0352 7.42188 32.0039 7.59375C31.9727 7.76562 31.9336 7.95312 31.8867 8.15625C31.8555 8.35938 31.8164 8.57031 31.7695 8.78906C31.7227 8.99219 31.6758 9.1875 31.6289 9.375C31.5039 9.96875 31.4102 10.4141 31.3477 10.7109C31.2852 11.0078 31.2383 11.2422 31.207 11.4141C31.1914 11.5859 31.1758 11.7344 31.1602 11.8594C31.1602 11.9688 31.1602 12.125 31.1602 12.3281C31.1445 12.4844 31.1523 12.6406 31.1836 12.7969C31.1992 12.9375 31.2305 13.0859 31.2773 13.2422C31.3242 13.3984 31.3867 13.5391 31.4648 13.6641L32.4023 12.9375C32.668 12.7344 32.918 12.4609 33.1523 12.1172C33.4023 11.7578 33.6367 11.3516 33.8555 10.8984C34.0898 10.4297 34.3164 9.92188 34.5352 9.375C34.7539 8.82812 34.9727 8.27344 35.1914 7.71094C35.5195 6.88281 35.8477 6.07812 36.1758 5.29688C36.5195 4.51562 36.8477 3.91406 37.1602 3.49219C37.5039 3.71094 37.8008 3.9375 38.0508 4.17188C38.3164 4.39062 38.543 4.63281 38.7305 4.89844C38.918 5.16406 39.0664 5.46875 39.1758 5.8125C39.3008 6.15625 39.3867 6.5625 39.4336 7.03125C39.1523 7.57812 38.8789 8.14062 38.6133 8.71875C38.3633 9.29688 38.1211 9.875 37.8867 10.4531C37.5742 11.2031 37.2461 11.9531 36.9023 12.7031C36.5742 13.4531 36.207 14.1719 35.8008 14.8594C35.3945 15.5312 34.9414 16.1562 34.4414 16.7344C33.9414 17.2969 33.3633 17.7734 32.707 18.1641C32.5352 18.1172 32.3867 18.0938 32.2617 18.0938C32.0117 18.0938 31.8008 18.1641 31.6289 18.3047ZM43.043 13.7344C42.9023 13.7656 42.8008 13.8516 42.7383 13.9922C42.6758 14.1172 42.6133 14.25 42.5508 14.3906C42.5039 14.5312 42.4492 14.6641 42.3867 14.7891C42.3398 14.8984 42.2617 14.9531 42.1523 14.9531C42.1367 15.0781 42.0898 15.1875 42.0117 15.2812C41.9492 15.375 41.8867 15.4766 41.8242 15.5859C41.7617 15.6797 41.7148 15.7891 41.6836 15.9141C41.6523 16.0234 41.668 16.1562 41.7305 16.3125C41.6055 16.4062 41.5273 16.5391 41.4961 16.7109C41.4648 16.8828 41.4258 17.0469 41.3789 17.2031C41.3477 17.3594 41.2852 17.4922 41.1914 17.6016C41.0977 17.7109 40.9258 17.7578 40.6758 17.7422C40.6289 17.8047 40.6211 17.8438 40.6523 17.8594C40.6836 17.875 40.707 17.9297 40.7227 18.0234C40.5508 17.9922 40.418 18 40.3242 18.0469C40.2461 18.1094 40.1445 18.1484 40.0195 18.1641C39.7227 18.0703 39.4727 17.9062 39.2695 17.6719C39.082 17.4375 38.9102 17.1797 38.7539 16.8984C38.6133 16.6016 38.4805 16.3047 38.3555 16.0078C38.2461 15.7109 38.1367 15.4531 38.0273 15.2344C38.0742 15.0625 38.082 14.8984 38.0508 14.7422C38.0195 14.5703 37.9648 14.4297 37.8867 14.3203C38.6523 12.6953 39.4883 10.9609 40.3945 9.11719C41.3008 7.27344 42.1602 5.45312 42.9727 3.65625C43.332 3.79688 43.6836 3.96094 44.0273 4.14844C44.3867 4.32031 44.707 4.52344 44.9883 4.75781C45.2852 4.99219 45.5352 5.26562 45.7383 5.57812C45.9414 5.875 46.0742 6.21094 46.1367 6.58594C46.1055 6.67969 46.0664 6.71875 46.0195 6.70312C45.9883 6.67188 45.957 6.67969 45.9258 6.72656C45.9883 6.80469 46.0195 6.85938 46.0195 6.89062C46.0352 6.92188 46.0352 6.95312 46.0195 6.98438C46.0195 7.01562 46.0195 7.0625 46.0195 7.125C46.0195 7.17188 46.043 7.24219 46.0898 7.33594C46.0273 7.32031 45.9805 7.32812 45.9492 7.35938C45.9336 7.39062 45.8867 7.39062 45.8086 7.35938C45.8711 7.53125 45.8867 7.67188 45.8555 7.78125C45.8398 7.89062 45.8086 7.99219 45.7617 8.08594C45.7148 8.16406 45.6758 8.25781 45.6445 8.36719C45.6133 8.46094 45.6211 8.58594 45.668 8.74219C45.6211 8.74219 45.582 8.75781 45.5508 8.78906C45.5352 8.80469 45.5195 8.82812 45.5039 8.85938C45.4883 8.875 45.4648 8.89844 45.4336 8.92969C45.418 8.94531 45.3867 8.94531 45.3398 8.92969C45.3867 9.27344 45.4023 9.61719 45.3867 9.96094C45.3711 10.3047 45.3555 10.6562 45.3398 11.0156C45.3398 11.3594 45.3477 11.7266 45.3633 12.1172C45.3789 12.4922 45.4336 12.8828 45.5273 13.2891C46.0898 12.9609 46.5352 12.5391 46.8633 12.0234C47.207 11.5078 47.4805 10.9297 47.6836 10.2891C47.9023 9.64844 48.0664 8.96094 48.1758 8.22656C48.2852 7.49219 48.4023 6.74219 48.5273 5.97656C48.668 5.83594 48.7773 5.66406 48.8555 5.46094C48.9336 5.25781 49.0039 5.04688 49.0664 4.82812C49.1289 4.59375 49.1914 4.36719 49.2539 4.14844C49.3164 3.91406 49.3945 3.70312 49.4883 3.51562C49.7227 3.54688 49.918 3.625 50.0742 3.75C50.2461 3.85938 50.4023 3.98438 50.543 4.125C50.6836 4.25 50.832 4.375 50.9883 4.5C51.1445 4.60938 51.3398 4.67969 51.5742 4.71094C51.7617 4.97656 51.9336 5.23438 52.0898 5.48438C52.2461 5.73438 52.3477 6 52.3945 6.28125C52.3164 6.40625 52.2539 6.54688 52.207 6.70312C52.1758 6.85938 52.1367 7.01562 52.0898 7.17188C52.043 7.32812 51.9805 7.47656 51.9023 7.61719C51.8242 7.74219 51.7148 7.85156 51.5742 7.94531C51.5273 8.35156 51.4648 8.72656 51.3867 9.07031C51.3242 9.39844 51.2539 9.72656 51.1758 10.0547C51.1133 10.3828 51.0586 10.7266 51.0117 11.0859C50.9648 11.4297 50.9492 11.8125 50.9648 12.2344C50.8398 12.5938 50.707 12.9766 50.5664 13.3828C50.4258 13.7891 50.3164 14.1562 50.2383 14.4844C49.9883 14.6875 49.793 14.9297 49.6523 15.2109C49.5117 15.4922 49.3633 15.7734 49.207 16.0547C49.1445 16.1172 49.1055 16.1328 49.0898 16.1016C49.0742 16.0703 49.0195 16.0469 48.9258 16.0312C48.9414 16.0938 48.9414 16.1406 48.9258 16.1719C48.9102 16.2031 48.8867 16.2344 48.8555 16.2656C48.8398 16.2812 48.8242 16.3125 48.8086 16.3594C48.8086 16.4062 48.8242 16.4688 48.8555 16.5469C48.6367 16.6406 48.4414 16.7734 48.2695 16.9453C48.0977 17.1172 47.9102 17.2734 47.707 17.4141C47.5195 17.5547 47.2852 17.6484 47.0039 17.6953C46.7383 17.7422 46.3867 17.6875 45.9492 17.5312C45.3086 17.0625 44.7383 16.5234 44.2383 15.9141C43.7539 15.3047 43.3555 14.5781 43.043 13.7344ZM64.8633 4.80469C64.8789 4.91406 64.8789 5 64.8633 5.0625C64.8633 5.10938 64.8555 5.15625 64.8398 5.20312C64.8398 5.25 64.8398 5.30469 64.8398 5.36719C64.8398 5.41406 64.8555 5.49219 64.8867 5.60156C64.5586 6.13281 64.1758 6.5 63.7383 6.70312C63.3164 6.89062 62.8555 7.03125 62.3555 7.125C61.8555 7.20312 61.3398 7.28906 60.8086 7.38281C60.293 7.47656 59.7773 7.67969 59.2617 7.99219C59.0586 7.91406 58.8711 7.91406 58.6992 7.99219C58.543 8.07031 58.3086 8.09375 57.9961 8.0625C57.9023 8.15625 57.7852 8.22656 57.6445 8.27344C57.5039 8.30469 57.3633 8.34375 57.2227 8.39062C57.2852 8.53125 57.3086 8.67969 57.293 8.83594C57.293 8.97656 57.3164 9.09375 57.3633 9.1875C57.9102 9.23438 58.5117 9.22656 59.168 9.16406C59.8398 9.10156 60.4961 9.0625 61.1367 9.04688C61.1523 9.125 61.1445 9.17969 61.1133 9.21094C61.082 9.22656 61.0742 9.26562 61.0898 9.32812C61.1992 9.40625 61.3086 9.50781 61.418 9.63281C61.5273 9.74219 61.6367 9.85156 61.7461 9.96094C61.8555 10.0703 61.9648 10.1641 62.0742 10.2422C62.1992 10.3047 62.3398 10.3281 62.4961 10.3125C62.5586 10.4375 62.5977 10.5781 62.6133 10.7344C62.6445 10.875 62.6289 11.0234 62.5664 11.1797C62.3164 11.3516 62.0664 11.5312 61.8164 11.7188C61.5664 11.8906 61.3008 12.0469 61.0195 12.1875C60.7539 12.3281 60.4648 12.4453 60.1523 12.5391C59.8555 12.6172 59.5195 12.6484 59.1445 12.6328C59.0664 12.6328 59.0039 12.6328 58.957 12.6328C58.9258 12.6328 58.8789 12.6094 58.8164 12.5625C58.6914 12.6406 58.5117 12.6641 58.2773 12.6328C58.0586 12.6016 57.8867 12.625 57.7617 12.7031C57.5898 12.625 57.3789 12.5938 57.1289 12.6094C56.8945 12.6094 56.6836 12.5781 56.4961 12.5156C56.2461 12.8438 56.0195 13.1953 55.8164 13.5703C55.6133 13.9453 55.4336 14.3438 55.2773 14.7656C55.8086 14.8438 56.2461 14.875 56.5898 14.8594C56.9492 14.8438 57.2852 14.8203 57.5977 14.7891C57.9102 14.7422 58.2305 14.7031 58.5586 14.6719C58.8867 14.625 59.3008 14.6094 59.8008 14.625C60.1133 14.4531 60.4805 14.3438 60.9023 14.2969C61.3398 14.2344 61.7383 14.1406 62.0977 14.0156C62.2227 14.0625 62.332 14.1484 62.4258 14.2734C62.5195 14.3828 62.6055 14.4922 62.6836 14.6016C62.7773 14.6953 62.8711 14.7812 62.9648 14.8594C63.0586 14.9375 63.1758 14.9688 63.3164 14.9531C63.3789 15.0156 63.418 15.0938 63.4336 15.1875C63.4648 15.2656 63.4883 15.3438 63.5039 15.4219C63.5195 15.5 63.543 15.5703 63.5742 15.6328C63.6211 15.6797 63.6914 15.6953 63.7852 15.6797C63.5508 16.1953 63.2773 16.5938 62.9648 16.875C62.668 17.1406 62.3242 17.3438 61.9336 17.4844C61.543 17.625 61.1055 17.7344 60.6211 17.8125C60.1523 17.8906 59.6289 17.9844 59.0508 18.0938C58.9102 18.125 58.793 18.1172 58.6992 18.0703C58.6055 18.0391 58.4961 18.0234 58.3711 18.0234C58.0117 18.1016 57.582 18.1719 57.082 18.2344C56.582 18.2969 56.0742 18.3203 55.5586 18.3047C55.043 18.2891 54.5508 18.2188 54.082 18.0938C53.6133 17.9844 53.2305 17.7812 52.9336 17.4844C52.8086 17.375 52.7227 17.25 52.6758 17.1094C52.6445 16.9531 52.543 16.8359 52.3711 16.7578C52.3555 16.5547 52.3242 16.3281 52.2773 16.0781C52.2305 15.8281 52.1836 15.5703 52.1367 15.3047C52.0898 15.0234 52.0508 14.75 52.0195 14.4844C52.0039 14.2188 52.0195 13.9766 52.0664 13.7578C52.1133 13.5234 52.207 13.3125 52.3477 13.125C52.5039 12.9375 52.5586 12.7344 52.5117 12.5156C52.5898 12.5 52.6367 12.4609 52.6523 12.3984C52.668 12.3203 52.7305 12.2891 52.8398 12.3047C52.9336 12.0234 53.0352 11.7578 53.1445 11.5078C53.2539 11.2578 53.3633 11.0156 53.4727 10.7812C53.5977 10.5469 53.7148 10.3125 53.8242 10.0781C53.9492 9.82812 54.0664 9.55469 54.1758 9.25781C53.957 9.05469 53.793 8.83594 53.6836 8.60156C53.5898 8.35156 53.5195 8.10938 53.4727 7.875C53.4258 7.625 53.3867 7.375 53.3555 7.125C53.3242 6.85938 53.2695 6.59375 53.1914 6.32812C53.3477 6.09375 53.5352 5.90625 53.7539 5.76562C53.9883 5.60938 54.2383 5.48438 54.5039 5.39062C54.7695 5.29688 55.0586 5.21875 55.3711 5.15625C55.6836 5.09375 56.0117 5.02344 56.3555 4.94531C56.9805 4.74219 57.5352 4.58594 58.0195 4.47656C58.5195 4.36719 59.0039 4.28125 59.4727 4.21875C59.957 4.14062 60.457 4.07031 60.9727 4.00781C61.4883 3.94531 62.0742 3.85156 62.7305 3.72656C62.8711 3.86719 63.0039 3.9375 63.1289 3.9375C63.1914 3.79688 63.2617 3.75781 63.3398 3.82031C63.4336 3.86719 63.4727 3.82031 63.457 3.67969C63.6133 3.94531 63.8086 4.17188 64.043 4.35938C64.293 4.53125 64.5664 4.67969 64.8633 4.80469ZM67.8398 15.5625C67.668 16.1875 67.5117 16.6641 67.3711 16.9922C67.2461 17.3047 67.0508 17.6328 66.7852 17.9766C66.582 17.9453 66.4414 17.9688 66.3633 18.0469C66.2852 18.125 66.1992 18.1953 66.1055 18.2578C65.9648 18.2891 65.8633 18.2891 65.8008 18.2578C65.7383 18.2266 65.6836 18.1875 65.6367 18.1406C65.5898 18.1094 65.5273 18.0703 65.4492 18.0234C65.3867 17.9922 65.2852 17.9766 65.1445 17.9766C65.1133 17.8516 65.0742 17.7344 65.0273 17.625C64.9961 17.5156 64.8945 17.4766 64.7227 17.5078C64.7539 17.3828 64.7617 17.2812 64.7461 17.2031C64.7305 17.1094 64.707 17.0312 64.6758 16.9688C64.6602 16.8906 64.6445 16.8203 64.6289 16.7578C64.6133 16.6797 64.6211 16.5859 64.6523 16.4766C64.5742 16.4766 64.5117 16.4219 64.4648 16.3125C64.418 16.2031 64.3633 16.0938 64.3008 15.9844C64.3477 15.7031 64.3945 15.4375 64.4414 15.1875C64.4883 14.9375 64.543 14.7031 64.6055 14.4844C64.6836 14.2656 64.7461 14.0469 64.793 13.8281C64.8398 13.6094 64.8164 13.3828 64.7227 13.1484C64.7852 13.1953 64.832 13.1875 64.8633 13.125C64.8945 13.0469 64.918 12.9531 64.9336 12.8438C64.9492 12.7188 64.957 12.6016 64.957 12.4922C64.957 12.3672 64.9492 12.2656 64.9336 12.1875C65.0898 11.7812 65.2148 11.3672 65.3086 10.9453C65.418 10.5078 65.5117 10.0781 65.5898 9.65625C65.6836 9.23438 65.7773 8.82031 65.8711 8.41406C65.9648 8.00781 66.0898 7.63281 66.2461 7.28906C66.418 7.25781 66.6055 7.28125 66.8086 7.35938C67.0273 7.42188 67.1602 7.50781 67.207 7.61719C67.6133 7.30469 67.9727 6.92969 68.2852 6.49219C68.5977 6.03906 68.918 5.60156 69.2461 5.17969C69.5742 4.75781 69.9336 4.38281 70.3242 4.05469C70.7305 3.72656 71.2383 3.53125 71.8477 3.46875C72.1602 3.70312 72.5039 3.94531 72.8789 4.19531C73.2695 4.42969 73.5898 4.74219 73.8398 5.13281C73.9648 5.19531 74.0664 5.26562 74.1445 5.34375C74.2383 5.40625 74.3477 5.47656 74.4727 5.55469V5.83594C74.6602 6.00781 74.8086 6.21094 74.918 6.44531C75.043 6.66406 75.1523 6.90625 75.2461 7.17188C75.3398 7.42188 75.4336 7.67969 75.5273 7.94531C75.6211 8.19531 75.7305 8.4375 75.8555 8.67188C75.8242 8.75 75.8086 8.82031 75.8086 8.88281C75.8086 8.92969 75.8164 8.98438 75.832 9.04688C75.8633 9.10938 75.8867 9.17188 75.9023 9.23438C75.918 9.29688 75.918 9.38281 75.9023 9.49219C75.8555 10.1797 75.6289 10.7344 75.2227 11.1562C74.832 11.5781 74.3555 11.9297 73.793 12.2109C73.2305 12.4766 72.6289 12.7031 71.9883 12.8906C71.3477 13.0781 70.7695 13.2812 70.2539 13.5C70.2539 13.5625 70.2773 13.5938 70.3242 13.5938C70.3867 13.5938 70.4102 13.6328 70.3945 13.7109C70.7695 13.9453 71.0664 14.1328 71.2852 14.2734C71.5039 14.4141 71.707 14.5312 71.8945 14.625C72.0977 14.7188 72.3086 14.8047 72.5273 14.8828C72.7617 14.9453 73.082 15.0234 73.4883 15.1172C73.8945 15.2109 74.207 15.2891 74.4258 15.3516C74.6602 15.3984 74.8711 15.4453 75.0586 15.4922C75.2461 15.5234 75.4336 15.5547 75.6211 15.5859C75.8242 15.6016 76.1055 15.625 76.4648 15.6562C76.6055 15.7969 76.7227 15.9688 76.8164 16.1719C76.9258 16.3594 76.9961 16.5547 77.0273 16.7578C77.0586 16.9453 77.0664 17.1328 77.0508 17.3203C77.0352 17.4922 76.9805 17.6328 76.8867 17.7422C76.9023 17.7891 76.9336 17.8125 76.9805 17.8125C77.043 17.7969 77.1055 17.7969 77.168 17.8125C77.0742 17.875 76.9961 17.9531 76.9336 18.0469C76.8711 18.1406 76.8086 18.2344 76.7461 18.3281C76.6836 18.4219 76.6133 18.5 76.5352 18.5625C76.457 18.6406 76.3477 18.6875 76.207 18.7031C75.7227 18.8906 75.1133 18.8984 74.3789 18.7266C73.6445 18.5703 72.7148 18.2734 71.5898 17.8359C71.0273 17.6172 70.5664 17.4297 70.207 17.2734C69.8633 17.1016 69.5586 16.9375 69.293 16.7812C69.043 16.6094 68.8086 16.4297 68.5898 16.2422C68.3867 16.0547 68.1367 15.8281 67.8398 15.5625ZM71.1914 7.52344C71.0195 7.77344 70.8242 8 70.6055 8.20312C70.4023 8.40625 70.1992 8.61719 69.9961 8.83594C69.8086 9.03906 69.6367 9.27344 69.4805 9.53906C69.3242 9.78906 69.2148 10.0859 69.1523 10.4297C69.6992 10.3672 70.2695 10.2188 70.8633 9.98438C71.457 9.73438 72.0195 9.5 72.5508 9.28125C72.4883 8.79688 72.3164 8.40625 72.0352 8.10938C71.7695 7.8125 71.4883 7.61719 71.1914 7.52344ZM77.4258 7.45312C77.5352 7.125 77.707 6.84375 77.9414 6.60938C78.1914 6.375 78.457 6.17969 78.7383 6.02344C79.0352 5.85156 79.3398 5.71094 79.6523 5.60156C79.9648 5.49219 80.2617 5.39844 80.543 5.32031C81.168 5.05469 81.832 4.80469 82.5352 4.57031C83.2539 4.32031 83.9805 4.10156 84.7148 3.91406C85.4648 3.72656 86.2305 3.60938 87.0117 3.5625C87.793 3.5 88.6133 3.59375 89.4727 3.84375C89.5195 4 89.5898 4.14844 89.6836 4.28906C89.7773 4.42969 89.8711 4.57031 89.9648 4.71094C90.0742 4.85156 90.168 4.99219 90.2461 5.13281C90.3242 5.25781 90.3711 5.39062 90.3867 5.53125C90.543 5.67188 90.668 5.82812 90.7617 6C90.8555 6.15625 90.8711 6.36719 90.8086 6.63281C90.6523 6.75781 90.4961 6.875 90.3398 6.98438C90.1992 7.07812 90.043 7.16406 89.8711 7.24219C89.293 7.10156 88.707 7.05469 88.1133 7.10156C87.5195 7.14844 86.9883 7.1875 86.5195 7.21875C86.3789 7.07812 86.207 7.00781 86.0039 7.00781C85.8164 7.00781 85.6133 7.03906 85.3945 7.10156C85.1914 7.16406 84.9805 7.22656 84.7617 7.28906C84.5586 7.35156 84.3633 7.36719 84.1758 7.33594C84.0195 7.46094 83.8242 7.54688 83.5898 7.59375C83.3711 7.625 83.1289 7.65625 82.8633 7.6875C82.8477 7.76562 82.8633 7.82031 82.9102 7.85156C82.957 7.86719 82.9648 7.91406 82.9336 7.99219C83.0273 8.10156 83.1445 8.17969 83.2852 8.22656C83.4414 8.27344 83.5977 8.32031 83.7539 8.36719C83.9258 8.41406 84.0742 8.47656 84.1992 8.55469C84.3242 8.61719 84.4102 8.72656 84.457 8.88281C84.6914 8.88281 84.8945 8.9375 85.0664 9.04688C85.2383 9.15625 85.3789 9.28906 85.4883 9.44531C85.5977 9.60156 85.6758 9.77344 85.7227 9.96094C85.7852 10.1328 85.8164 10.2891 85.8164 10.4297C85.8633 10.5547 85.918 10.6094 85.9805 10.5938C86.043 10.5781 86.1133 10.6094 86.1914 10.6875C86.2383 10.8906 86.3555 11.1016 86.543 11.3203C86.7305 11.5234 86.8789 11.75 86.9883 12C87.0195 12.3906 87.043 12.7422 87.0586 13.0547C87.0742 13.3516 87.0195 13.6562 86.8945 13.9688C86.6602 14.5469 86.332 15.0625 85.9102 15.5156C85.5039 15.9688 85.0352 16.375 84.5039 16.7344C83.9883 17.0781 83.4336 17.375 82.8398 17.625C82.2461 17.875 81.668 18.0859 81.1055 18.2578C81.043 18.2422 80.9805 18.2422 80.918 18.2578C80.8555 18.2734 80.8398 18.2344 80.8711 18.1406C80.7461 18.25 80.6055 18.3203 80.4492 18.3516C80.3086 18.3828 80.1523 18.3906 79.9805 18.375C79.8086 18.375 79.6289 18.3672 79.4414 18.3516C79.2695 18.3359 79.1055 18.3438 78.9492 18.375C78.8398 18.2656 78.7383 18.1562 78.6445 18.0469C78.5664 17.9531 78.5039 17.8281 78.457 17.6719C78.3789 17.6719 78.3398 17.6328 78.3398 17.5547C78.3555 17.4766 78.332 17.4375 78.2695 17.4375C78.3633 17.2812 78.4023 17.1953 78.3867 17.1797C78.3867 17.1484 78.3633 17.125 78.3164 17.1094C78.2852 17.0938 78.2539 17.0781 78.2227 17.0625C78.1914 17.0312 78.1836 16.9922 78.1992 16.9453C78.2617 16.8203 78.2852 16.6797 78.2695 16.5234C78.2539 16.3516 78.2383 16.1797 78.2227 16.0078C78.207 15.8359 78.2148 15.6719 78.2461 15.5156C78.293 15.3594 78.4102 15.2344 78.5977 15.1406C79.1289 15.2031 79.6289 15.1875 80.0977 15.0938C80.582 14.9844 81.0352 14.8359 81.457 14.6484C81.8789 14.4609 82.2773 14.2578 82.6523 14.0391C83.043 13.8203 83.4258 13.625 83.8008 13.4531C83.8477 13.3125 83.9102 13.1953 83.9883 13.1016C84.082 13.0078 84.1758 12.9219 84.2695 12.8438C84.3633 12.7656 84.4492 12.6797 84.5273 12.5859C84.6055 12.4922 84.6602 12.375 84.6914 12.2344C84.707 12.125 84.6758 12.0625 84.5977 12.0469C84.5352 12.0156 84.5039 11.9531 84.5039 11.8594L84.2461 11.7891C83.9492 11.6172 83.6133 11.4766 83.2383 11.3672C82.8633 11.2422 82.543 11.1094 82.2773 10.9688C82.1055 11.0625 81.9414 11.0859 81.7852 11.0391C81.6445 10.9922 81.457 10.9453 81.2227 10.8984C80.6914 10.8672 80.1758 10.8125 79.6758 10.7344C79.1914 10.6562 78.7227 10.5156 78.2695 10.3125C78.2383 10.2344 78.1992 10.1641 78.1523 10.1016C78.1055 10.0391 78.0195 10.0234 77.8945 10.0547C77.8008 9.92969 77.707 9.8125 77.6133 9.70312C77.5195 9.57812 77.4336 9.44531 77.3555 9.30469C77.3867 9.11719 77.4102 8.96094 77.4258 8.83594C77.4414 8.69531 77.3945 8.5625 77.2852 8.4375C77.3477 8.23438 77.3945 8.07031 77.4258 7.94531C77.457 7.82031 77.457 7.65625 77.4258 7.45312ZM100.184 15.7266C100.215 16.1328 100.168 16.4688 100.043 16.7344C99.918 17 99.7461 17.2266 99.5273 17.4141C99.3086 17.6016 99.0586 17.75 98.7773 17.8594C98.4961 17.9688 98.2227 18.0703 97.957 18.1641C97.832 18.0859 97.707 18.0078 97.582 17.9297C97.4727 17.8359 97.3398 17.7656 97.1836 17.7188C96.9805 17.3438 96.7852 17.0156 96.5977 16.7344C96.4102 16.4375 96.3242 16.1016 96.3398 15.7266C96.3398 15.7109 96.3477 15.625 96.3633 15.4688C96.3945 15.3125 96.4258 15.1406 96.457 14.9531C96.5039 14.7656 96.5352 14.5938 96.5508 14.4375C96.582 14.2656 96.5977 14.1719 96.5977 14.1562C96.2383 14.1875 95.8633 14.2656 95.4727 14.3906C95.082 14.5156 94.6992 14.6641 94.3242 14.8359C93.9648 15.0078 93.6211 15.1797 93.293 15.3516C92.9805 15.5234 92.7227 15.6719 92.5195 15.7969C92.5195 15.8438 92.4883 15.9609 92.4258 16.1484C92.3633 16.3203 92.2852 16.5078 92.1914 16.7109C92.0977 16.8984 91.9961 17.0703 91.8867 17.2266C91.7773 17.3828 91.668 17.4609 91.5586 17.4609C91.5742 17.5078 91.5977 17.5547 91.6289 17.6016C91.6602 17.6484 91.6602 17.7109 91.6289 17.7891C91.4102 17.8516 91.2148 17.9297 91.043 18.0234C90.8711 18.1328 90.6914 18.2188 90.5039 18.2812C90.3164 18.3594 90.1133 18.3984 89.8945 18.3984C89.6758 18.3984 89.418 18.3203 89.1211 18.1641C89.1211 18.0703 89.082 17.9922 89.0039 17.9297C88.9258 17.8516 88.8398 17.7891 88.7461 17.7422C88.668 17.6797 88.5977 17.6328 88.5352 17.6016C88.4727 17.5547 88.4414 17.5156 88.4414 17.4844C88.3633 17.5 88.332 17.4453 88.3477 17.3203C88.3633 17.1953 88.4258 17.1641 88.5352 17.2266C88.3633 17.0078 88.2539 16.8203 88.207 16.6641C88.1758 16.4922 88.0898 16.2812 87.9492 16.0312C87.9805 16 88.0117 15.9453 88.043 15.8672C88.0586 15.7891 88.0742 15.7188 88.0898 15.6562C88.1055 15.5938 88.1289 15.5469 88.1602 15.5156C88.1914 15.4844 88.2305 15.4922 88.2773 15.5391C88.2461 15.3984 88.2461 15.2812 88.2773 15.1875C88.3086 15.0938 88.3398 15.0078 88.3711 14.9297C88.4023 14.8516 88.4258 14.7734 88.4414 14.6953C88.457 14.6172 88.4336 14.5312 88.3711 14.4375C88.6211 14.0938 88.7852 13.7266 88.8633 13.3359C88.9414 12.9297 88.9883 12.5625 89.0039 12.2344C89.1133 12.125 89.207 11.9688 89.2852 11.7656C89.3789 11.5625 89.4492 11.3594 89.4961 11.1562C89.543 10.9375 89.5586 10.7344 89.543 10.5469C89.543 10.3438 89.5195 10.1797 89.4727 10.0547C89.4883 9.97656 89.5742 9.95312 89.7305 9.98438C89.8242 9.46875 89.8867 8.89062 89.918 8.25C89.9648 7.59375 90.0352 6.97656 90.1289 6.39844C90.2227 5.80469 90.3789 5.28906 90.5977 4.85156C90.8164 4.39844 91.168 4.10156 91.6523 3.96094C91.7461 4.28906 91.8633 4.57812 92.0039 4.82812C92.1602 5.07812 92.3242 5.32031 92.4961 5.55469C92.6836 5.77344 92.8633 6 93.0352 6.23438C93.2227 6.46875 93.3945 6.73438 93.5508 7.03125C93.5352 7.32812 93.5039 7.67188 93.457 8.0625C93.4102 8.45312 93.3477 8.85156 93.2695 9.25781C93.207 9.66406 93.1367 10.0547 93.0586 10.4297C92.9961 10.8047 92.9336 11.125 92.8711 11.3906C92.8867 11.4688 92.9258 11.5156 92.9883 11.5312C93.0664 11.5469 93.082 11.6172 93.0352 11.7422C93.4102 11.6484 93.8008 11.5625 94.207 11.4844C94.6133 11.4062 95.0195 11.3203 95.4258 11.2266C95.832 11.1328 96.2227 11.0312 96.5977 10.9219C96.9883 10.7969 97.3477 10.6484 97.6758 10.4766C97.7539 9.86719 97.8555 9.25781 97.9805 8.64844C98.1055 8.03906 98.1211 7.41406 98.0273 6.77344C98.1055 6.71094 98.168 6.63281 98.2148 6.53906C98.2617 6.44531 98.3398 6.38281 98.4492 6.35156C98.3711 6.05469 98.3398 5.74219 98.3555 5.41406C98.3711 5.08594 98.4258 4.77344 98.5195 4.47656C98.6289 4.17969 98.7773 3.92969 98.9648 3.72656C99.168 3.50781 99.4102 3.36719 99.6914 3.30469C99.8633 3.55469 100.012 3.82812 100.137 4.125C100.262 4.40625 100.387 4.69531 100.512 4.99219C100.652 5.27344 100.793 5.54688 100.934 5.8125C101.09 6.0625 101.285 6.28125 101.52 6.46875C101.566 6.92188 101.598 7.39062 101.613 7.875C101.645 8.35938 101.668 8.85156 101.684 9.35156C101.559 9.94531 101.418 10.5234 101.262 11.0859C101.121 11.6328 101.02 12.2188 100.957 12.8438C100.848 12.9688 100.762 13.1094 100.699 13.2656C100.637 13.4219 100.574 13.5859 100.512 13.7578C100.449 13.9141 100.379 14.0703 100.301 14.2266C100.223 14.3672 100.129 14.4922 100.02 14.6016C100.082 14.7891 100.09 14.9688 100.043 15.1406C100.012 15.2969 100.059 15.4922 100.184 15.7266ZM107.121 16.3594C107.199 16.8281 107.168 17.1953 107.027 17.4609C106.902 17.7266 106.715 17.9219 106.465 18.0469C106.23 18.1875 105.957 18.2656 105.645 18.2812C105.332 18.2969 105.035 18.2812 104.754 18.2344C104.598 18.0156 104.457 17.7422 104.332 17.4141C104.207 17.0859 104.09 16.75 103.98 16.4062C103.871 16.0469 103.77 15.6953 103.676 15.3516C103.598 15.0078 103.527 14.7031 103.465 14.4375C103.543 14.25 103.59 14.0391 103.605 13.8047C103.637 13.5547 103.652 13.3047 103.652 13.0547C103.668 12.8047 103.676 12.5547 103.676 12.3047C103.691 12.0391 103.715 11.7891 103.746 11.5547C103.855 10.8984 104.012 10.2734 104.215 9.67969C104.434 9.08594 104.605 8.46875 104.73 7.82812C104.762 7.6875 104.746 7.55469 104.684 7.42969C104.637 7.30469 104.629 7.1875 104.66 7.07812C104.676 7.01562 104.723 6.97656 104.801 6.96094C104.879 6.92969 104.926 6.875 104.941 6.79688C104.988 6.625 104.996 6.48438 104.965 6.375C104.949 6.26562 104.98 6.13281 105.059 5.97656C105.137 5.85156 105.23 5.67188 105.34 5.4375C105.465 5.1875 105.512 4.92969 105.48 4.66406C105.621 4.57031 105.754 4.46094 105.879 4.33594C106.004 4.21094 106.129 4.10156 106.254 4.00781C106.395 3.89844 106.543 3.80469 106.699 3.72656C106.871 3.64844 107.074 3.60938 107.309 3.60938C107.434 3.76562 107.512 3.9375 107.543 4.125C107.59 4.3125 107.629 4.5 107.66 4.6875C107.707 4.875 107.77 5.05469 107.848 5.22656C107.926 5.38281 108.059 5.50781 108.246 5.60156C108.246 5.72656 108.246 5.88281 108.246 6.07031C108.246 6.25781 108.254 6.44531 108.27 6.63281C108.285 6.80469 108.316 6.96875 108.363 7.125C108.426 7.26562 108.52 7.35938 108.645 7.40625C108.363 8.15625 108.098 8.89844 107.848 9.63281C107.613 10.3672 107.418 11.1094 107.262 11.8594C107.105 12.5938 107.004 13.3359 106.957 14.0859C106.926 14.8359 106.98 15.5938 107.121 16.3594ZM118.676 3.46875C119.332 3.54688 119.918 3.67969 120.434 3.86719C120.949 4.05469 121.387 4.30469 121.746 4.61719C121.996 5.00781 122.23 5.42969 122.449 5.88281C122.684 6.33594 122.855 6.8125 122.965 7.3125C123.09 7.79688 123.145 8.29688 123.129 8.8125C123.129 9.32812 123.02 9.85156 122.801 10.3828C122.348 10.9453 121.793 11.4062 121.137 11.7656C120.496 12.1094 119.801 12.3906 119.051 12.6094C118.301 12.8281 117.52 13.0156 116.707 13.1719C115.91 13.3281 115.129 13.4844 114.363 13.6406C114.379 14 114.379 14.3828 114.363 14.7891C114.363 15.1797 114.324 15.5781 114.246 15.9844C114.184 16.375 114.082 16.7578 113.941 17.1328C113.801 17.5078 113.613 17.8516 113.379 18.1641C113.113 18.1641 112.84 18.1953 112.559 18.2578C112.277 18.3359 112.027 18.3984 111.809 18.4453C111.699 18.3828 111.598 18.3203 111.504 18.2578C111.426 18.2109 111.309 18.1797 111.152 18.1641C111.184 18.0078 111.145 17.8516 111.035 17.6953C110.926 17.5234 110.816 17.3516 110.707 17.1797C110.598 17.0078 110.52 16.8438 110.473 16.6875C110.441 16.5312 110.52 16.3828 110.707 16.2422C110.598 16.1328 110.543 15.9922 110.543 15.8203C110.652 15.6328 110.746 15.375 110.824 15.0469C110.918 14.7188 110.988 14.3984 111.035 14.0859C111.098 13.7578 111.113 13.4609 111.082 13.1953C111.051 12.9297 110.895 12.7344 110.613 12.6094C110.629 12.5781 110.66 12.5625 110.707 12.5625C110.754 12.5625 110.801 12.5547 110.848 12.5391C110.723 12.4453 110.645 12.3125 110.613 12.1406C110.598 11.9688 110.543 11.8203 110.449 11.6953C110.48 11.6172 110.504 11.5469 110.52 11.4844C110.535 11.4219 110.59 11.3984 110.684 11.4141C110.637 11.1328 110.637 10.8672 110.684 10.6172C110.746 10.3672 110.832 10.1328 110.941 9.91406C111.051 9.67969 111.184 9.45312 111.34 9.23438C111.496 9.01562 111.645 8.79688 111.785 8.57812C111.895 8.5625 111.957 8.57812 111.973 8.625C112.004 8.67188 112.059 8.66406 112.137 8.60156C112.34 8.44531 112.48 8.28125 112.559 8.10938C112.637 7.9375 112.676 7.74219 112.676 7.52344C112.785 7.19531 112.918 6.86719 113.074 6.53906C113.23 6.19531 113.402 5.88281 113.59 5.60156C113.777 5.32031 113.98 5.07031 114.199 4.85156C114.434 4.63281 114.676 4.46875 114.926 4.35938C115.113 4.20312 115.348 4.0625 115.629 3.9375C115.91 3.79688 116.215 3.69531 116.543 3.63281C116.871 3.55469 117.199 3.51562 117.527 3.51562C117.871 3.5 118.184 3.53125 118.465 3.60938C118.543 3.64062 118.582 3.625 118.582 3.5625C118.598 3.5 118.629 3.46875 118.676 3.46875ZM117.715 9.07031C118.105 8.89844 118.52 8.76562 118.957 8.67188C119.41 8.5625 119.785 8.36719 120.082 8.08594C119.895 7.91406 119.621 7.76562 119.262 7.64062C118.902 7.5 118.512 7.41406 118.09 7.38281C117.668 7.35156 117.238 7.39062 116.801 7.5C116.379 7.59375 116.012 7.78125 115.699 8.0625C115.605 8.34375 115.527 8.57031 115.465 8.74219C115.402 8.89844 115.316 9.09375 115.207 9.32812C115.238 9.40625 115.285 9.46875 115.348 9.51562C115.426 9.54688 115.48 9.60156 115.512 9.67969C115.871 9.49219 116.23 9.39062 116.59 9.375C116.965 9.34375 117.34 9.24219 117.715 9.07031Z" fill="black"/>
</svg>
