<svg width="147" height="19" viewBox="0 0 147 19" fill="none" xmlns="http://www.w3.org/2000/svg">
<path d="M0.121094 7.42969C0.167969 7.19531 0.199219 7.00781 0.214844 6.86719C0.230469 6.71094 0.175781 6.54688 0.0507812 6.375C0.113281 6.125 0.160156 5.92969 0.191406 5.78906C0.238281 5.64844 0.246094 5.45312 0.214844 5.20312C0.355469 4.79688 0.566406 4.45312 0.847656 4.17188C1.14453 3.89062 1.46484 3.65625 1.80859 3.46875C2.15234 3.26562 2.51172 3.10156 2.88672 2.97656C3.26172 2.83594 3.61328 2.71875 3.94141 2.625C3.94141 2.5625 3.91016 2.53125 3.84766 2.53125C3.78516 2.53125 3.76953 2.49219 3.80078 2.41406C4.64453 2.25781 5.48828 2.03125 6.33203 1.73438C7.19141 1.4375 8.06641 1.17188 8.95703 0.9375C9.84766 0.703125 10.7617 0.5625 11.6992 0.515625C12.6367 0.453125 13.6211 0.570312 14.6523 0.867188C14.7148 1.05469 14.8008 1.23438 14.9102 1.40625C15.0195 1.57812 15.1289 1.75 15.2383 1.92188C15.3633 2.07812 15.4727 2.23438 15.5664 2.39062C15.6602 2.54688 15.7148 2.71094 15.7305 2.88281C15.918 3.05469 16.0664 3.24219 16.1758 3.44531C16.3008 3.63281 16.3242 3.89062 16.2461 4.21875C16.0742 4.34375 15.8945 4.46875 15.707 4.59375C15.5195 4.71875 15.3242 4.83594 15.1211 4.94531C14.418 4.77344 13.7148 4.71094 13.0117 4.75781C12.3086 4.80469 11.6758 4.85938 11.1133 4.92188C10.9414 4.73438 10.7383 4.64844 10.5039 4.66406C10.2695 4.66406 10.0195 4.70312 9.75391 4.78125C9.50391 4.84375 9.25391 4.91406 9.00391 4.99219C8.75391 5.05469 8.51953 5.07031 8.30078 5.03906C8.12891 5.19531 7.90234 5.30469 7.62109 5.36719C7.33984 5.41406 7.04297 5.45312 6.73047 5.48438C6.71484 5.5625 6.73047 5.61719 6.77734 5.64844C6.82422 5.67969 6.83203 5.74219 6.80078 5.83594C6.91016 5.97656 7.05859 6.07812 7.24609 6.14062C7.43359 6.1875 7.62109 6.23438 7.80859 6.28125C8.01172 6.32812 8.19141 6.39844 8.34766 6.49219C8.50391 6.57031 8.60547 6.70312 8.65234 6.89062C8.93359 6.90625 9.17578 6.98438 9.37891 7.125C9.58203 7.25 9.75391 7.40625 9.89453 7.59375C10.0352 7.78125 10.1367 7.98438 10.1992 8.20312C10.2617 8.40625 10.2852 8.59375 10.2695 8.76562C10.332 8.92188 10.3945 8.98438 10.457 8.95312C10.5352 8.92188 10.6211 8.96094 10.7148 9.07031C10.7773 9.30469 10.918 9.55469 11.1367 9.82031C11.3711 10.0703 11.5508 10.3438 11.6758 10.6406C11.707 11.1094 11.7305 11.5312 11.7461 11.9062C11.7773 12.2812 11.7148 12.6484 11.5586 13.0078C11.293 13.6953 10.9102 14.3125 10.4102 14.8594C9.91016 15.4062 9.33984 15.8906 8.69922 16.3125C8.07422 16.7188 7.41016 17.0781 6.70703 17.3906C6.00391 17.6875 5.30859 17.9375 4.62109 18.1406C4.55859 18.125 4.48047 18.125 4.38672 18.1406C4.30859 18.1562 4.29297 18.1094 4.33984 18C4.19922 18.125 4.03516 18.2031 3.84766 18.2344C3.67578 18.2656 3.48047 18.2734 3.26172 18.2578C3.05859 18.2578 2.84766 18.25 2.62891 18.2344C2.42578 18.2188 2.22266 18.2266 2.01953 18.2578C1.89453 18.1328 1.77734 18.0078 1.66797 17.8828C1.57422 17.7578 1.49609 17.6094 1.43359 17.4375C1.35547 17.4219 1.31641 17.375 1.31641 17.2969C1.33203 17.2031 1.30078 17.1562 1.22266 17.1562C1.22266 17.0938 1.23047 17.0469 1.24609 17.0156C1.26172 16.9844 1.27734 16.9531 1.29297 16.9219C1.35547 16.875 1.37891 16.8438 1.36328 16.8281C1.36328 16.7969 1.33984 16.7734 1.29297 16.7578C1.26172 16.7266 1.22266 16.6953 1.17578 16.6641C1.14453 16.6328 1.13672 16.5938 1.15234 16.5469C1.23047 16.4062 1.25391 16.2422 1.22266 16.0547C1.20703 15.8516 1.19141 15.6484 1.17578 15.4453C1.16016 15.2422 1.17578 15.0547 1.22266 14.8828C1.26953 14.6953 1.40234 14.5391 1.62109 14.4141C2.26172 14.4766 2.86328 14.4453 3.42578 14.3203C4.00391 14.1953 4.54297 14.0234 5.04297 13.8047C5.55859 13.5859 6.04297 13.3516 6.49609 13.1016C6.96484 12.8359 7.41797 12.5938 7.85547 12.375C7.90234 12.2188 7.97266 12.0859 8.06641 11.9766C8.17578 11.8672 8.28516 11.7656 8.39453 11.6719C8.50391 11.5625 8.60547 11.4531 8.69922 11.3438C8.79297 11.2188 8.86328 11.0703 8.91016 10.8984C8.92578 10.8359 8.92578 10.7891 8.91016 10.7578C8.89453 10.7266 8.87109 10.7031 8.83984 10.6875C8.80859 10.6562 8.77734 10.625 8.74609 10.5938C8.71484 10.5625 8.69922 10.5156 8.69922 10.4531C8.65234 10.4375 8.60547 10.4219 8.55859 10.4062C8.52734 10.3906 8.49609 10.3828 8.46484 10.3828C8.05859 10.1797 7.62891 10.0078 7.17578 9.86719C6.72266 9.72656 6.33984 9.57031 6.02734 9.39844C5.83984 9.52344 5.65234 9.55469 5.46484 9.49219C5.27734 9.42969 5.05078 9.36719 4.78516 9.30469C4.12891 9.27344 3.50391 9.21094 2.91016 9.11719C2.33203 9.02344 1.76953 8.85938 1.22266 8.625C1.19141 8.53125 1.15234 8.45312 1.10547 8.39062C1.05859 8.3125 0.949219 8.28906 0.777344 8.32031C0.667969 8.16406 0.550781 8.02344 0.425781 7.89844C0.316406 7.75781 0.214844 7.60156 0.121094 7.42969ZM14.957 17.2031C14.832 17.0781 14.7383 16.9297 14.6758 16.7578C14.6289 16.5859 14.5039 16.4453 14.3008 16.3359C14.2695 16.1016 14.2227 15.8359 14.1602 15.5391C14.1133 15.2266 14.0586 14.9141 13.9961 14.6016C13.9492 14.2734 13.9102 13.9531 13.8789 13.6406C13.8633 13.3125 13.8789 13.0156 13.9258 12.75C13.957 12.6094 14.0039 12.4766 14.0664 12.3516C14.1445 12.2266 14.2148 12.1094 14.2773 12C14.3555 11.875 14.4102 11.75 14.4414 11.625C14.4883 11.5 14.4961 11.375 14.4648 11.25C14.5586 11.2344 14.6133 11.1875 14.6289 11.1094C14.6602 11.0156 14.7383 10.9844 14.8633 11.0156C14.9727 10.6719 15.0898 10.3516 15.2148 10.0547C15.3398 9.75781 15.4727 9.46875 15.6133 9.1875C15.7539 8.90625 15.8945 8.625 16.0352 8.34375C16.1914 8.04688 16.332 7.71875 16.457 7.35938C16.1914 7.10938 15.9961 6.84375 15.8711 6.5625C15.7617 6.26562 15.6758 5.96875 15.6133 5.67188C15.5508 5.375 15.5039 5.07812 15.4727 4.78125C15.4414 4.46875 15.3789 4.15625 15.2852 3.84375C15.4727 3.5625 15.6992 3.33594 15.9648 3.16406C16.2305 2.97656 16.5195 2.82812 16.832 2.71875C17.1602 2.59375 17.5117 2.5 17.8867 2.4375C18.2617 2.35938 18.6602 2.27344 19.082 2.17969C19.832 1.94531 20.5039 1.76562 21.0977 1.64062C21.6914 1.5 22.2695 1.39062 22.832 1.3125C23.3945 1.21875 23.9805 1.14062 24.5898 1.07812C25.1992 1 25.9023 0.890625 26.6992 0.75C26.7148 0.796875 26.7383 0.820312 26.7695 0.820312C26.8164 0.820312 26.8711 0.820312 26.9336 0.820312C26.9805 0.929688 27.0664 0.984375 27.1914 0.984375C27.1914 0.9375 27.1836 0.898438 27.168 0.867188C27.168 0.820312 27.168 0.78125 27.168 0.75C27.1992 0.75 27.2383 0.757812 27.2852 0.773438C27.3477 0.789062 27.3945 0.804688 27.4258 0.820312C27.4727 0.835938 27.5117 0.835938 27.543 0.820312C27.5742 0.789062 27.582 0.734375 27.5664 0.65625C27.7539 0.984375 27.9961 1.25781 28.293 1.47656C28.5898 1.67969 28.918 1.85938 29.2773 2.01562C29.293 2.15625 29.293 2.25781 29.2773 2.32031C29.2773 2.38281 29.2695 2.44531 29.2539 2.50781C29.2383 2.55469 29.2305 2.61719 29.2305 2.69531C29.2305 2.75781 29.2461 2.85156 29.2773 2.97656C29.0273 3.39844 28.7383 3.72656 28.4102 3.96094C28.0977 4.19531 27.7617 4.375 27.4023 4.5C27.043 4.625 26.6602 4.71875 26.2539 4.78125C25.8633 4.84375 25.457 4.91406 25.0352 4.99219C24.6289 5.05469 24.2148 5.14844 23.793 5.27344C23.3711 5.39844 22.957 5.58594 22.5508 5.83594C22.4258 5.78906 22.3086 5.77344 22.1992 5.78906C22.1055 5.78906 22.0039 5.80469 21.8945 5.83594C21.7852 5.86719 21.6602 5.89844 21.5195 5.92969C21.3945 5.96094 21.2383 5.96094 21.0508 5.92969C20.9258 6.03906 20.7773 6.11719 20.6055 6.16406C20.4492 6.21094 20.2852 6.25781 20.1133 6.30469C20.1914 6.47656 20.2227 6.64844 20.207 6.82031C20.207 6.99219 20.2305 7.14062 20.2773 7.26562C20.9336 7.32812 21.6602 7.32812 22.457 7.26562C23.2539 7.1875 24.0352 7.13281 24.8008 7.10156C24.8164 7.17969 24.8086 7.23438 24.7773 7.26562C24.7461 7.29688 24.7305 7.35156 24.7305 7.42969C24.8711 7.52344 25.0039 7.64062 25.1289 7.78125C25.2539 7.92188 25.3789 8.0625 25.5039 8.20312C25.6445 8.32812 25.7852 8.4375 25.9258 8.53125C26.0664 8.60938 26.2305 8.64062 26.418 8.625C26.4961 8.78125 26.5508 8.94531 26.582 9.11719C26.6133 9.28906 26.5898 9.46875 26.5117 9.65625C26.1992 9.85938 25.8945 10.0703 25.5977 10.2891C25.3008 10.4922 24.9883 10.6797 24.6602 10.8516C24.3477 11.0234 24.0039 11.1641 23.6289 11.2734C23.2539 11.3828 22.8477 11.4297 22.4102 11.4141C22.332 11.4141 22.2617 11.4141 22.1992 11.4141C22.1523 11.4141 22.0898 11.3828 22.0117 11.3203C21.8555 11.3984 21.6445 11.4297 21.3789 11.4141C21.1289 11.3828 20.918 11.4062 20.7461 11.4844C20.5273 11.4062 20.2695 11.3672 19.9727 11.3672C19.6914 11.3672 19.4414 11.3281 19.2227 11.25C18.9414 11.6562 18.6758 12.0859 18.4258 12.5391C18.1758 12.9766 17.957 13.4453 17.7695 13.9453C18.4102 14.0391 18.9414 14.0781 19.3633 14.0625C19.7852 14.0469 20.1836 14.0156 20.5586 13.9688C20.9336 13.9219 21.3164 13.875 21.707 13.8281C22.1133 13.7812 22.6055 13.7656 23.1836 13.7812C23.5742 13.5938 24.0195 13.4688 24.5195 13.4062C25.0352 13.3281 25.5117 13.2188 25.9492 13.0781C26.1055 13.125 26.2383 13.2188 26.3477 13.3594C26.457 13.4844 26.5586 13.6172 26.6523 13.7578C26.7617 13.8828 26.8711 13.9922 26.9805 14.0859C27.0898 14.1797 27.2305 14.2109 27.4023 14.1797C27.4805 14.2578 27.5273 14.3516 27.543 14.4609C27.5742 14.5703 27.5977 14.6719 27.6133 14.7656C27.6445 14.8594 27.6836 14.9375 27.7305 15C27.7773 15.0469 27.8633 15.0625 27.9883 15.0469C27.6914 15.6562 27.3555 16.125 26.9805 16.4531C26.6211 16.7812 26.207 17.0391 25.7383 17.2266C25.2852 17.3984 24.7695 17.5312 24.1914 17.625C23.6289 17.7031 22.9961 17.8047 22.293 17.9297C22.1211 17.9609 21.9727 17.9609 21.8477 17.9297C21.7383 17.8828 21.6211 17.8594 21.4961 17.8594C21.0586 17.9375 20.5352 18.0156 19.9258 18.0938C19.332 18.1719 18.7305 18.2031 18.1211 18.1875C17.5117 18.1719 16.9258 18.0938 16.3633 17.9531C15.8008 17.8125 15.332 17.5625 14.957 17.2031ZM30.0039 17.2031C29.8789 17.0781 29.7852 16.9297 29.7227 16.7578C29.6758 16.5859 29.5508 16.4453 29.3477 16.3359C29.3164 16.1016 29.2695 15.8359 29.207 15.5391C29.1602 15.2266 29.1055 14.9141 29.043 14.6016C28.9961 14.2734 28.957 13.9531 28.9258 13.6406C28.9102 13.3125 28.9258 13.0156 28.9727 12.75C29.0039 12.6094 29.0508 12.4766 29.1133 12.3516C29.1914 12.2266 29.2617 12.1094 29.3242 12C29.4023 11.875 29.457 11.75 29.4883 11.625C29.5352 11.5 29.543 11.375 29.5117 11.25C29.6055 11.2344 29.6602 11.1875 29.6758 11.1094C29.707 11.0156 29.7852 10.9844 29.9102 11.0156C30.0195 10.6719 30.1367 10.3516 30.2617 10.0547C30.3867 9.75781 30.5195 9.46875 30.6602 9.1875C30.8008 8.90625 30.9414 8.625 31.082 8.34375C31.2383 8.04688 31.3789 7.71875 31.5039 7.35938C31.2383 7.10938 31.043 6.84375 30.918 6.5625C30.8086 6.26562 30.7227 5.96875 30.6602 5.67188C30.5977 5.375 30.5508 5.07812 30.5195 4.78125C30.4883 4.46875 30.4258 4.15625 30.332 3.84375C30.5195 3.5625 30.7461 3.33594 31.0117 3.16406C31.2773 2.97656 31.5664 2.82812 31.8789 2.71875C32.207 2.59375 32.5586 2.5 32.9336 2.4375C33.3086 2.35938 33.707 2.27344 34.1289 2.17969C34.8789 1.94531 35.5508 1.76562 36.1445 1.64062C36.7383 1.5 37.3164 1.39062 37.8789 1.3125C38.4414 1.21875 39.0273 1.14062 39.6367 1.07812C40.2461 1 40.9492 0.890625 41.7461 0.75C41.7617 0.796875 41.7852 0.820312 41.8164 0.820312C41.8633 0.820312 41.918 0.820312 41.9805 0.820312C42.0273 0.929688 42.1133 0.984375 42.2383 0.984375C42.2383 0.9375 42.2305 0.898438 42.2148 0.867188C42.2148 0.820312 42.2148 0.78125 42.2148 0.75C42.2461 0.75 42.2852 0.757812 42.332 0.773438C42.3945 0.789062 42.4414 0.804688 42.4727 0.820312C42.5195 0.835938 42.5586 0.835938 42.5898 0.820312C42.6211 0.789062 42.6289 0.734375 42.6133 0.65625C42.8008 0.984375 43.043 1.25781 43.3398 1.47656C43.6367 1.67969 43.9648 1.85938 44.3242 2.01562C44.3398 2.15625 44.3398 2.25781 44.3242 2.32031C44.3242 2.38281 44.3164 2.44531 44.3008 2.50781C44.2852 2.55469 44.2773 2.61719 44.2773 2.69531C44.2773 2.75781 44.293 2.85156 44.3242 2.97656C44.0742 3.39844 43.7852 3.72656 43.457 3.96094C43.1445 4.19531 42.8086 4.375 42.4492 4.5C42.0898 4.625 41.707 4.71875 41.3008 4.78125C40.9102 4.84375 40.5039 4.91406 40.082 4.99219C39.6758 5.05469 39.2617 5.14844 38.8398 5.27344C38.418 5.39844 38.0039 5.58594 37.5977 5.83594C37.4727 5.78906 37.3555 5.77344 37.2461 5.78906C37.1523 5.78906 37.0508 5.80469 36.9414 5.83594C36.832 5.86719 36.707 5.89844 36.5664 5.92969C36.4414 5.96094 36.2852 5.96094 36.0977 5.92969C35.9727 6.03906 35.8242 6.11719 35.6523 6.16406C35.4961 6.21094 35.332 6.25781 35.1602 6.30469C35.2383 6.47656 35.2695 6.64844 35.2539 6.82031C35.2539 6.99219 35.2773 7.14062 35.3242 7.26562C35.9805 7.32812 36.707 7.32812 37.5039 7.26562C38.3008 7.1875 39.082 7.13281 39.8477 7.10156C39.8633 7.17969 39.8555 7.23438 39.8242 7.26562C39.793 7.29688 39.7773 7.35156 39.7773 7.42969C39.918 7.52344 40.0508 7.64062 40.1758 7.78125C40.3008 7.92188 40.4258 8.0625 40.5508 8.20312C40.6914 8.32812 40.832 8.4375 40.9727 8.53125C41.1133 8.60938 41.2773 8.64062 41.4648 8.625C41.543 8.78125 41.5977 8.94531 41.6289 9.11719C41.6602 9.28906 41.6367 9.46875 41.5586 9.65625C41.2461 9.85938 40.9414 10.0703 40.6445 10.2891C40.3477 10.4922 40.0352 10.6797 39.707 10.8516C39.3945 11.0234 39.0508 11.1641 38.6758 11.2734C38.3008 11.3828 37.8945 11.4297 37.457 11.4141C37.3789 11.4141 37.3086 11.4141 37.2461 11.4141C37.1992 11.4141 37.1367 11.3828 37.0586 11.3203C36.9023 11.3984 36.6914 11.4297 36.4258 11.4141C36.1758 11.3828 35.9648 11.4062 35.793 11.4844C35.5742 11.4062 35.3164 11.3672 35.0195 11.3672C34.7383 11.3672 34.4883 11.3281 34.2695 11.25C33.9883 11.6562 33.7227 12.0859 33.4727 12.5391C33.2227 12.9766 33.0039 13.4453 32.8164 13.9453C33.457 14.0391 33.9883 14.0781 34.4102 14.0625C34.832 14.0469 35.2305 14.0156 35.6055 13.9688C35.9805 13.9219 36.3633 13.875 36.7539 13.8281C37.1602 13.7812 37.6523 13.7656 38.2305 13.7812C38.6211 13.5938 39.0664 13.4688 39.5664 13.4062C40.082 13.3281 40.5586 13.2188 40.9961 13.0781C41.1523 13.125 41.2852 13.2188 41.3945 13.3594C41.5039 13.4844 41.6055 13.6172 41.6992 13.7578C41.8086 13.8828 41.918 13.9922 42.0273 14.0859C42.1367 14.1797 42.2773 14.2109 42.4492 14.1797C42.5273 14.2578 42.5742 14.3516 42.5898 14.4609C42.6211 14.5703 42.6445 14.6719 42.6602 14.7656C42.6914 14.8594 42.7305 14.9375 42.7773 15C42.8242 15.0469 42.9102 15.0625 43.0352 15.0469C42.7383 15.6562 42.4023 16.125 42.0273 16.4531C41.668 16.7812 41.2539 17.0391 40.7852 17.2266C40.332 17.3984 39.8164 17.5312 39.2383 17.625C38.6758 17.7031 38.043 17.8047 37.3398 17.9297C37.168 17.9609 37.0195 17.9609 36.8945 17.9297C36.7852 17.8828 36.668 17.8594 36.543 17.8594C36.1055 17.9375 35.582 18.0156 34.9727 18.0938C34.3789 18.1719 33.7773 18.2031 33.168 18.1875C32.5586 18.1719 31.9727 18.0938 31.4102 17.9531C30.8477 17.8125 30.3789 17.5625 30.0039 17.2031ZM46.0352 18.2578C45.582 18.1484 45.2305 17.9688 44.9805 17.7188C44.7461 17.4531 44.5664 17.1484 44.4414 16.8047C44.332 16.4453 44.2539 16.0547 44.207 15.6328C44.1758 15.2109 44.1367 14.7734 44.0898 14.3203C44.1523 14.1172 44.2305 13.9453 44.3242 13.8047C44.4336 13.6641 44.4805 13.4688 44.4648 13.2188C44.6367 12.7188 44.793 12.2344 44.9336 11.7656C45.0742 11.2969 45.168 10.8125 45.2148 10.3125C45.3086 10.1719 45.4023 10.0781 45.4961 10.0312C45.6211 9.14062 45.6367 8.22656 45.543 7.28906C45.4492 6.35156 45.293 5.48438 45.0742 4.6875C45.0898 4.51562 45.1133 4.39062 45.1445 4.3125C45.1758 4.21875 45.1758 4.14062 45.1445 4.07812C45.1133 3.9375 45.1602 3.86719 45.2852 3.86719C45.4102 3.86719 45.5352 3.86719 45.6602 3.86719C45.6602 3.58594 45.6055 3.3125 45.4961 3.04688C45.4023 2.76562 45.3086 2.44531 45.2148 2.08594C45.3398 1.80469 45.4258 1.53125 45.4727 1.26562C45.5195 1 45.6055 0.757812 45.7305 0.539062C46.2305 0.695312 46.7227 0.875 47.207 1.07812C47.6914 1.28125 48.168 1.48438 48.6367 1.6875C49.1055 1.875 49.5664 2.0625 50.0195 2.25C50.4727 2.42188 50.918 2.5625 51.3555 2.67188C52.0273 3.15625 52.7148 3.64062 53.418 4.125C54.1367 4.59375 54.7852 5.11719 55.3633 5.69531C55.957 6.25781 56.4492 6.90625 56.8398 7.64062C57.2305 8.375 57.457 9.24219 57.5195 10.2422C57.4883 10.3359 57.4648 10.4141 57.4492 10.4766C57.4336 10.5391 57.418 10.6016 57.4023 10.6641C57.3867 10.7266 57.3789 10.7969 57.3789 10.875C57.3789 10.9531 57.3789 11.0625 57.3789 11.2031C56.8164 12.1875 56.1055 13.0156 55.2461 13.6875C54.3867 14.3594 53.4492 14.9531 52.4336 15.4688C51.418 15.9844 50.3555 16.4609 49.2461 16.8984C48.1523 17.3203 47.082 17.7734 46.0352 18.2578ZM48.332 4.96875C48.1914 4.96875 48.0898 5 48.0273 5.0625C48.2148 5.76562 48.3555 6.42969 48.4492 7.05469C48.543 7.67969 48.5898 8.30469 48.5898 8.92969C48.6055 9.55469 48.5742 10.1953 48.4961 10.8516C48.418 11.5078 48.3086 12.2188 48.168 12.9844C48.3711 12.9688 48.5508 12.9297 48.707 12.8672C48.8633 12.8047 49.0195 12.7344 49.1758 12.6562C49.3477 12.5781 49.5195 12.5078 49.6914 12.4453C49.8789 12.3828 50.0898 12.3438 50.3242 12.3281C50.3867 12.2031 50.4648 12.1094 50.5586 12.0469C50.668 11.9688 50.7617 11.8906 50.8398 11.8125C51.2305 11.6562 51.6211 11.4922 52.0117 11.3203C52.4023 11.1484 52.7617 10.9531 53.0898 10.7344C53.418 10.5156 53.7148 10.2656 53.9805 9.98438C54.2461 9.70312 54.4648 9.36719 54.6367 8.97656C54.5117 8.74219 54.3555 8.54688 54.168 8.39062C53.9961 8.21875 53.8086 8.05469 53.6055 7.89844C53.418 7.72656 53.2305 7.55469 53.043 7.38281C52.8711 7.19531 52.7305 6.98438 52.6211 6.75C52.3711 6.71875 52.1523 6.65625 51.9648 6.5625C51.7773 6.45312 51.5977 6.35156 51.4258 6.25781C51.2539 6.14844 51.0664 6.04688 50.8633 5.95312C50.6758 5.85938 50.4492 5.80469 50.1836 5.78906C49.7773 5.57031 49.4102 5.42188 49.082 5.34375C48.7539 5.25 48.5039 5.125 48.332 4.96875ZM67.8086 11.3906C67.8242 11.3281 67.8555 11.3047 67.9023 11.3203C67.9648 11.3203 68.0195 11.3125 68.0664 11.2969C67.9414 11.1719 67.8633 11.0078 67.832 10.8047C67.8008 10.5859 67.7227 10.4062 67.5977 10.2656C67.6289 10.1875 67.6523 10.1094 67.668 10.0312C67.6992 9.95312 67.7695 9.92188 67.8789 9.9375C67.832 9.59375 67.8398 9.27344 67.9023 8.97656C67.9648 8.67969 68.0586 8.39844 68.1836 8.13281C68.3242 7.86719 68.4805 7.60938 68.6523 7.35938C68.8398 7.09375 69.0195 6.82812 69.1914 6.5625C69.332 6.53125 69.418 6.54688 69.4492 6.60938C69.4805 6.65625 69.5352 6.64062 69.6133 6.5625C69.8633 6.39062 70.0352 6.20312 70.1289 6C70.2227 5.78125 70.2695 5.54688 70.2695 5.29688C70.4102 4.89062 70.5664 4.49219 70.7383 4.10156C70.9258 3.69531 71.1367 3.32031 71.3711 2.97656C71.6055 2.63281 71.8555 2.33594 72.1211 2.08594C72.3867 1.82031 72.6758 1.61719 72.9883 1.47656C73.207 1.28906 73.4805 1.11719 73.8086 0.960938C74.1523 0.804688 74.5117 0.6875 74.8867 0.609375C75.2773 0.515625 75.6758 0.46875 76.082 0.46875C76.4883 0.453125 76.8633 0.492188 77.207 0.585938C77.2852 0.617188 77.332 0.601562 77.3477 0.539062C77.3633 0.460938 77.4023 0.421875 77.4648 0.421875C78.2461 0.515625 78.9414 0.671875 79.5508 0.890625C80.1758 1.10938 80.707 1.41406 81.1445 1.80469C81.4414 2.27344 81.7227 2.78125 81.9883 3.32812C82.2539 3.85938 82.457 4.42188 82.5977 5.01562C82.7539 5.59375 82.8242 6.19531 82.8086 6.82031C82.793 7.44531 82.6602 8.07031 82.4102 8.69531C81.8633 9.38281 81.1992 9.9375 80.418 10.3594C79.6367 10.7656 78.793 11.1094 77.8867 11.3906C76.9961 11.6562 76.0664 11.875 75.0977 12.0469C74.1445 12.2188 73.2148 12.4062 72.3086 12.6094C72.3242 13.0312 72.3242 13.4844 72.3086 13.9688C72.293 14.4375 72.2383 14.9141 72.1445 15.3984C72.0664 15.8672 71.9414 16.3281 71.7695 16.7812C71.6133 17.2344 71.3945 17.6562 71.1133 18.0469C70.8008 18.0312 70.4727 18.0625 70.1289 18.1406C69.8008 18.2188 69.5039 18.2969 69.2383 18.375C69.1133 18.2969 68.9883 18.2188 68.8633 18.1406C68.7539 18.0781 68.6133 18.0391 68.4414 18.0234C68.4883 17.8359 68.4414 17.6406 68.3008 17.4375C68.1758 17.2344 68.043 17.0391 67.9023 16.8516C67.7773 16.6484 67.6914 16.4531 67.6445 16.2656C67.6133 16.0625 67.707 15.8828 67.9258 15.7266C67.8008 15.6172 67.7383 15.4453 67.7383 15.2109C67.8008 15.2734 67.8789 15.3047 67.9727 15.3047C67.9414 15.0234 67.9727 14.6875 68.0664 14.2969C68.1758 13.9062 68.2617 13.5234 68.3242 13.1484C68.4023 12.7578 68.418 12.4062 68.3711 12.0938C68.3242 11.7656 68.1367 11.5312 67.8086 11.3906ZM73.9023 5.90625C73.8398 6.07812 73.7852 6.23438 73.7383 6.375C73.707 6.5 73.668 6.61719 73.6211 6.72656C73.5742 6.83594 73.5195 6.94531 73.457 7.05469C73.4102 7.16406 73.3555 7.28906 73.293 7.42969C73.3242 7.52344 73.3867 7.59375 73.4805 7.64062C73.5742 7.6875 73.6367 7.75781 73.668 7.85156C73.8867 7.74219 74.1055 7.66406 74.3242 7.61719C74.543 7.55469 74.7617 7.50781 74.9805 7.47656C75.1992 7.44531 75.418 7.40625 75.6367 7.35938C75.8555 7.3125 76.082 7.23438 76.3164 7.125C76.5508 7.01562 76.793 6.92969 77.043 6.86719C77.3086 6.78906 77.5664 6.71094 77.8164 6.63281C78.0664 6.55469 78.3086 6.46875 78.543 6.375C78.7773 6.26562 78.9805 6.125 79.1523 5.95312C78.9336 5.75 78.6055 5.57031 78.168 5.41406C77.7305 5.25781 77.2539 5.16406 76.7383 5.13281C76.2383 5.08594 75.7305 5.11719 75.2148 5.22656C74.7148 5.33594 74.2773 5.5625 73.9023 5.90625ZM94.1055 15.7266C94.1367 16.1328 94.0898 16.4688 93.9648 16.7344C93.8398 17 93.668 17.2266 93.4492 17.4141C93.2305 17.6016 92.9805 17.75 92.6992 17.8594C92.418 17.9688 92.1445 18.0703 91.8789 18.1641C91.7539 18.0859 91.6289 18.0078 91.5039 17.9297C91.3945 17.8359 91.2617 17.7656 91.1055 17.7188C90.9023 17.3438 90.707 17.0156 90.5195 16.7344C90.332 16.4375 90.2461 16.1016 90.2617 15.7266C90.2617 15.7109 90.2695 15.625 90.2852 15.4688C90.3164 15.3125 90.3477 15.1406 90.3789 14.9531C90.4258 14.7656 90.457 14.5938 90.4727 14.4375C90.5039 14.2656 90.5195 14.1719 90.5195 14.1562C90.1602 14.1875 89.7852 14.2656 89.3945 14.3906C89.0039 14.5156 88.6211 14.6641 88.2461 14.8359C87.8867 15.0078 87.543 15.1797 87.2148 15.3516C86.9023 15.5234 86.6445 15.6719 86.4414 15.7969C86.4414 15.8438 86.4102 15.9609 86.3477 16.1484C86.2852 16.3203 86.207 16.5078 86.1133 16.7109C86.0195 16.8984 85.918 17.0703 85.8086 17.2266C85.6992 17.3828 85.5898 17.4609 85.4805 17.4609C85.4961 17.5078 85.5195 17.5547 85.5508 17.6016C85.582 17.6484 85.582 17.7109 85.5508 17.7891C85.332 17.8516 85.1367 17.9297 84.9648 18.0234C84.793 18.1328 84.6133 18.2188 84.4258 18.2812C84.2383 18.3594 84.0352 18.3984 83.8164 18.3984C83.5977 18.3984 83.3398 18.3203 83.043 18.1641C83.043 18.0703 83.0039 17.9922 82.9258 17.9297C82.8477 17.8516 82.7617 17.7891 82.668 17.7422C82.5898 17.6797 82.5195 17.6328 82.457 17.6016C82.3945 17.5547 82.3633 17.5156 82.3633 17.4844C82.2852 17.5 82.2539 17.4453 82.2695 17.3203C82.2852 17.1953 82.3477 17.1641 82.457 17.2266C82.2852 17.0078 82.1758 16.8203 82.1289 16.6641C82.0977 16.4922 82.0117 16.2812 81.8711 16.0312C81.9023 16 81.9336 15.9453 81.9648 15.8672C81.9805 15.7891 81.9961 15.7188 82.0117 15.6562C82.0273 15.5938 82.0508 15.5469 82.082 15.5156C82.1133 15.4844 82.1523 15.4922 82.1992 15.5391C82.168 15.3984 82.168 15.2812 82.1992 15.1875C82.2305 15.0938 82.2617 15.0078 82.293 14.9297C82.3242 14.8516 82.3477 14.7734 82.3633 14.6953C82.3789 14.6172 82.3555 14.5312 82.293 14.4375C82.543 14.0938 82.707 13.7266 82.7852 13.3359C82.8633 12.9297 82.9102 12.5625 82.9258 12.2344C83.0352 12.125 83.1289 11.9688 83.207 11.7656C83.3008 11.5625 83.3711 11.3594 83.418 11.1562C83.4648 10.9375 83.4805 10.7344 83.4648 10.5469C83.4648 10.3438 83.4414 10.1797 83.3945 10.0547C83.4102 9.97656 83.4961 9.95312 83.6523 9.98438C83.7461 9.46875 83.8086 8.89062 83.8398 8.25C83.8867 7.59375 83.957 6.97656 84.0508 6.39844C84.1445 5.80469 84.3008 5.28906 84.5195 4.85156C84.7383 4.39844 85.0898 4.10156 85.5742 3.96094C85.668 4.28906 85.7852 4.57812 85.9258 4.82812C86.082 5.07812 86.2461 5.32031 86.418 5.55469C86.6055 5.77344 86.7852 6 86.957 6.23438C87.1445 6.46875 87.3164 6.73438 87.4727 7.03125C87.457 7.32812 87.4258 7.67188 87.3789 8.0625C87.332 8.45312 87.2695 8.85156 87.1914 9.25781C87.1289 9.66406 87.0586 10.0547 86.9805 10.4297C86.918 10.8047 86.8555 11.125 86.793 11.3906C86.8086 11.4688 86.8477 11.5156 86.9102 11.5312C86.9883 11.5469 87.0039 11.6172 86.957 11.7422C87.332 11.6484 87.7227 11.5625 88.1289 11.4844C88.5352 11.4062 88.9414 11.3203 89.3477 11.2266C89.7539 11.1328 90.1445 11.0312 90.5195 10.9219C90.9102 10.7969 91.2695 10.6484 91.5977 10.4766C91.6758 9.86719 91.7773 9.25781 91.9023 8.64844C92.0273 8.03906 92.043 7.41406 91.9492 6.77344C92.0273 6.71094 92.0898 6.63281 92.1367 6.53906C92.1836 6.44531 92.2617 6.38281 92.3711 6.35156C92.293 6.05469 92.2617 5.74219 92.2773 5.41406C92.293 5.08594 92.3477 4.77344 92.4414 4.47656C92.5508 4.17969 92.6992 3.92969 92.8867 3.72656C93.0898 3.50781 93.332 3.36719 93.6133 3.30469C93.7852 3.55469 93.9336 3.82812 94.0586 4.125C94.1836 4.40625 94.3086 4.69531 94.4336 4.99219C94.5742 5.27344 94.7148 5.54688 94.8555 5.8125C95.0117 6.0625 95.207 6.28125 95.4414 6.46875C95.4883 6.92188 95.5195 7.39062 95.5352 7.875C95.5664 8.35938 95.5898 8.85156 95.6055 9.35156C95.4805 9.94531 95.3398 10.5234 95.1836 11.0859C95.043 11.6328 94.9414 12.2188 94.8789 12.8438C94.7695 12.9688 94.6836 13.1094 94.6211 13.2656C94.5586 13.4219 94.4961 13.5859 94.4336 13.7578C94.3711 13.9141 94.3008 14.0703 94.2227 14.2266C94.1445 14.3672 94.0508 14.4922 93.9414 14.6016C94.0039 14.7891 94.0117 14.9688 93.9648 15.1406C93.9336 15.2969 93.9805 15.4922 94.1055 15.7266ZM99.8477 15.5625C99.6758 16.1875 99.5195 16.6641 99.3789 16.9922C99.2539 17.3047 99.0586 17.6328 98.793 17.9766C98.5898 17.9453 98.4492 17.9688 98.3711 18.0469C98.293 18.125 98.207 18.1953 98.1133 18.2578C97.9727 18.2891 97.8711 18.2891 97.8086 18.2578C97.7461 18.2266 97.6914 18.1875 97.6445 18.1406C97.5977 18.1094 97.5352 18.0703 97.457 18.0234C97.3945 17.9922 97.293 17.9766 97.1523 17.9766C97.1211 17.8516 97.082 17.7344 97.0352 17.625C97.0039 17.5156 96.9023 17.4766 96.7305 17.5078C96.7617 17.3828 96.7695 17.2812 96.7539 17.2031C96.7383 17.1094 96.7148 17.0312 96.6836 16.9688C96.668 16.8906 96.6523 16.8203 96.6367 16.7578C96.6211 16.6797 96.6289 16.5859 96.6602 16.4766C96.582 16.4766 96.5195 16.4219 96.4727 16.3125C96.4258 16.2031 96.3711 16.0938 96.3086 15.9844C96.3555 15.7031 96.4023 15.4375 96.4492 15.1875C96.4961 14.9375 96.5508 14.7031 96.6133 14.4844C96.6914 14.2656 96.7539 14.0469 96.8008 13.8281C96.8477 13.6094 96.8242 13.3828 96.7305 13.1484C96.793 13.1953 96.8398 13.1875 96.8711 13.125C96.9023 13.0469 96.9258 12.9531 96.9414 12.8438C96.957 12.7188 96.9648 12.6016 96.9648 12.4922C96.9648 12.3672 96.957 12.2656 96.9414 12.1875C97.0977 11.7812 97.2227 11.3672 97.3164 10.9453C97.4258 10.5078 97.5195 10.0781 97.5977 9.65625C97.6914 9.23438 97.7852 8.82031 97.8789 8.41406C97.9727 8.00781 98.0977 7.63281 98.2539 7.28906C98.4258 7.25781 98.6133 7.28125 98.8164 7.35938C99.0352 7.42188 99.168 7.50781 99.2148 7.61719C99.6211 7.30469 99.9805 6.92969 100.293 6.49219C100.605 6.03906 100.926 5.60156 101.254 5.17969C101.582 4.75781 101.941 4.38281 102.332 4.05469C102.738 3.72656 103.246 3.53125 103.855 3.46875C104.168 3.70312 104.512 3.94531 104.887 4.19531C105.277 4.42969 105.598 4.74219 105.848 5.13281C105.973 5.19531 106.074 5.26562 106.152 5.34375C106.246 5.40625 106.355 5.47656 106.48 5.55469V5.83594C106.668 6.00781 106.816 6.21094 106.926 6.44531C107.051 6.66406 107.16 6.90625 107.254 7.17188C107.348 7.42188 107.441 7.67969 107.535 7.94531C107.629 8.19531 107.738 8.4375 107.863 8.67188C107.832 8.75 107.816 8.82031 107.816 8.88281C107.816 8.92969 107.824 8.98438 107.84 9.04688C107.871 9.10938 107.895 9.17188 107.91 9.23438C107.926 9.29688 107.926 9.38281 107.91 9.49219C107.863 10.1797 107.637 10.7344 107.23 11.1562C106.84 11.5781 106.363 11.9297 105.801 12.2109C105.238 12.4766 104.637 12.7031 103.996 12.8906C103.355 13.0781 102.777 13.2812 102.262 13.5C102.262 13.5625 102.285 13.5938 102.332 13.5938C102.395 13.5938 102.418 13.6328 102.402 13.7109C102.777 13.9453 103.074 14.1328 103.293 14.2734C103.512 14.4141 103.715 14.5312 103.902 14.625C104.105 14.7188 104.316 14.8047 104.535 14.8828C104.77 14.9453 105.09 15.0234 105.496 15.1172C105.902 15.2109 106.215 15.2891 106.434 15.3516C106.668 15.3984 106.879 15.4453 107.066 15.4922C107.254 15.5234 107.441 15.5547 107.629 15.5859C107.832 15.6016 108.113 15.625 108.473 15.6562C108.613 15.7969 108.73 15.9688 108.824 16.1719C108.934 16.3594 109.004 16.5547 109.035 16.7578C109.066 16.9453 109.074 17.1328 109.059 17.3203C109.043 17.4922 108.988 17.6328 108.895 17.7422C108.91 17.7891 108.941 17.8125 108.988 17.8125C109.051 17.7969 109.113 17.7969 109.176 17.8125C109.082 17.875 109.004 17.9531 108.941 18.0469C108.879 18.1406 108.816 18.2344 108.754 18.3281C108.691 18.4219 108.621 18.5 108.543 18.5625C108.465 18.6406 108.355 18.6875 108.215 18.7031C107.73 18.8906 107.121 18.8984 106.387 18.7266C105.652 18.5703 104.723 18.2734 103.598 17.8359C103.035 17.6172 102.574 17.4297 102.215 17.2734C101.871 17.1016 101.566 16.9375 101.301 16.7812C101.051 16.6094 100.816 16.4297 100.598 16.2422C100.395 16.0547 100.145 15.8281 99.8477 15.5625ZM103.199 7.52344C103.027 7.77344 102.832 8 102.613 8.20312C102.41 8.40625 102.207 8.61719 102.004 8.83594C101.816 9.03906 101.645 9.27344 101.488 9.53906C101.332 9.78906 101.223 10.0859 101.16 10.4297C101.707 10.3672 102.277 10.2188 102.871 9.98438C103.465 9.73438 104.027 9.5 104.559 9.28125C104.496 8.79688 104.324 8.40625 104.043 8.10938C103.777 7.8125 103.496 7.61719 103.199 7.52344ZM121.457 16.0312C121.363 16.2969 121.223 16.5703 121.035 16.8516C120.863 17.1172 120.652 17.3594 120.402 17.5781C120.168 17.7812 119.902 17.9531 119.605 18.0938C119.309 18.2344 118.996 18.3125 118.668 18.3281C118.465 18.2812 118.324 18.2266 118.246 18.1641C118.184 18.1172 118.113 18.0703 118.035 18.0234C117.988 17.9922 117.941 17.9688 117.895 17.9531C117.863 17.9219 117.832 17.8984 117.801 17.8828L117.52 17.7656L117.613 17.4609C117.645 17.3359 117.637 17.2422 117.59 17.1797C117.543 17.1016 117.449 17 117.309 16.875C117.262 16.8281 117.215 16.7812 117.168 16.7344C117.121 16.6875 117.082 16.6406 117.051 16.5938L116.652 16.1484L117.285 15.9844C117.676 15.875 117.934 15.7344 118.059 15.5625C118.199 15.3906 118.254 15.1016 118.223 14.6953C117.91 14.6328 117.645 14.625 117.426 14.6719C117.223 14.7188 117.012 14.7734 116.793 14.8359C116.512 14.9141 116.223 14.9844 115.926 15.0469C115.645 15.0938 115.332 15.1172 114.988 15.1172C114.863 15.1172 114.746 15.1172 114.637 15.1172C114.527 15.1016 114.41 15.0859 114.285 15.0703L114.051 15.0234C114.02 14.8516 113.988 14.7578 113.957 14.7422C113.926 14.7109 113.895 14.6797 113.863 14.6484C113.785 14.5703 113.699 14.4688 113.605 14.3438C113.527 14.2031 113.512 14.0312 113.559 13.8281C113.48 13.6875 113.434 13.5469 113.418 13.4062C113.324 13.5938 113.254 13.7891 113.207 13.9922L113.113 14.2266L112.879 14.2734C112.848 14.2891 112.824 14.3281 112.809 14.3906C112.793 14.4375 112.785 14.4766 112.785 14.5078L112.668 14.9062C112.637 14.9375 112.605 14.9688 112.574 15C112.543 15.0156 112.512 15.0391 112.48 15.0703C112.449 15.2109 112.41 15.3516 112.363 15.4922C112.316 15.6328 112.27 15.7656 112.223 15.8906C112.145 16.0938 112.074 16.2969 112.012 16.5C111.965 16.6875 111.949 16.875 111.965 17.0625L111.871 17.3203C111.793 17.4141 111.707 17.4922 111.613 17.5547C111.52 17.6016 111.426 17.6484 111.332 17.6953C111.301 17.7266 111.254 17.7578 111.191 17.7891C111.145 17.8047 111.105 17.8203 111.074 17.8359L111.004 18.0938L110.723 18.1406C110.551 18.1719 110.426 18.1953 110.348 18.2109C110.285 18.2266 110.207 18.2344 110.113 18.2344L109.879 18.2109C109.707 18.0703 109.574 17.9609 109.48 17.8828C109.387 17.7891 109.277 17.7031 109.152 17.625C109.012 17.4375 108.934 17.2969 108.918 17.2031C108.902 17.1094 108.887 17.0234 108.871 16.9453C108.84 16.8516 108.824 16.7734 108.824 16.7109C108.809 16.6484 108.785 16.6016 108.754 16.5703L108.449 16.2891L108.707 16.0781L108.73 15.6797C109.043 14.8828 109.371 14.1172 109.715 13.3828C110.074 12.6484 110.441 11.8984 110.816 11.1328C110.941 10.8828 111.059 10.6328 111.168 10.3828C111.293 10.1328 111.418 9.88281 111.543 9.63281C111.527 9.58594 111.52 9.53125 111.52 9.46875C111.52 9.40625 111.535 9.33594 111.566 9.25781C111.738 8.99219 111.879 8.75781 111.988 8.55469C112.098 8.33594 112.207 8.11719 112.316 7.89844C112.441 7.63281 112.566 7.375 112.691 7.125C112.832 6.875 113.004 6.61719 113.207 6.35156L113.582 6.1875C113.629 6.17188 113.684 6.15625 113.746 6.14062C113.809 6.10938 113.879 6.09375 113.957 6.09375L114.309 6.14062C114.746 5.9375 115.129 5.65625 115.457 5.29688C115.785 4.92188 116.121 4.47656 116.465 3.96094L116.699 3.63281L117.004 3.82031C117.082 3.86719 117.191 3.91406 117.332 3.96094C117.473 3.99219 117.621 4.03125 117.777 4.07812C118.059 4.14062 118.324 4.21094 118.574 4.28906C118.824 4.36719 119.027 4.48438 119.184 4.64062C119.277 4.89062 119.332 5.07812 119.348 5.20312C119.363 5.32812 119.387 5.45312 119.418 5.57812C119.465 5.84375 119.504 6.10938 119.535 6.375C119.582 6.64062 119.613 6.9375 119.629 7.26562C119.707 7.53125 119.77 7.79688 119.816 8.0625C119.879 8.3125 119.934 8.57031 119.98 8.83594C120.059 9.21094 120.137 9.57812 120.215 9.9375C120.293 10.2812 120.395 10.6094 120.52 10.9219C120.645 10.9219 120.723 10.9297 120.754 10.9453C120.832 10.9141 120.91 10.8906 120.988 10.875C121.082 10.8594 121.184 10.8438 121.293 10.8281L121.551 10.8047L121.645 11.0391C121.66 11.1172 121.738 11.1953 121.879 11.2734C122.082 11.2891 122.23 11.3359 122.324 11.4141C122.418 11.4766 122.504 11.5469 122.582 11.625C122.645 11.6875 122.707 11.7344 122.77 11.7656L123.121 11.9062L122.934 12.2578C122.777 12.5391 122.551 12.8125 122.254 13.0781C121.973 13.3281 121.652 13.5391 121.293 13.7109C121.309 13.8047 121.316 13.8984 121.316 13.9922C121.332 14.0703 121.355 14.1562 121.387 14.25C121.434 14.5156 121.473 14.7891 121.504 15.0703C121.535 15.3516 121.535 15.6406 121.504 15.9375L121.457 16.0312ZM114.684 11.9766C115.152 11.9453 115.574 11.9141 115.949 11.8828C116.34 11.8359 116.77 11.7656 117.238 11.6719C117.129 11.2031 117.012 10.7188 116.887 10.2188C116.762 9.70312 116.629 9.19531 116.488 8.69531L116.348 8.92969C116.035 9.25781 115.73 9.625 115.434 10.0312C115.152 10.4375 114.91 10.8203 114.707 11.1797C114.613 11.3203 114.52 11.4609 114.426 11.6016C114.332 11.7422 114.246 11.8828 114.168 12.0234C114.262 12.0078 114.348 12 114.426 12C114.52 12 114.605 11.9922 114.684 11.9766ZM122.91 7.45312C123.02 7.125 123.191 6.84375 123.426 6.60938C123.676 6.375 123.941 6.17969 124.223 6.02344C124.52 5.85156 124.824 5.71094 125.137 5.60156C125.449 5.49219 125.746 5.39844 126.027 5.32031C126.652 5.05469 127.316 4.80469 128.02 4.57031C128.738 4.32031 129.465 4.10156 130.199 3.91406C130.949 3.72656 131.715 3.60938 132.496 3.5625C133.277 3.5 134.098 3.59375 134.957 3.84375C135.004 4 135.074 4.14844 135.168 4.28906C135.262 4.42969 135.355 4.57031 135.449 4.71094C135.559 4.85156 135.652 4.99219 135.73 5.13281C135.809 5.25781 135.855 5.39062 135.871 5.53125C136.027 5.67188 136.152 5.82812 136.246 6C136.34 6.15625 136.355 6.36719 136.293 6.63281C136.137 6.75781 135.98 6.875 135.824 6.98438C135.684 7.07812 135.527 7.16406 135.355 7.24219C134.777 7.10156 134.191 7.05469 133.598 7.10156C133.004 7.14844 132.473 7.1875 132.004 7.21875C131.863 7.07812 131.691 7.00781 131.488 7.00781C131.301 7.00781 131.098 7.03906 130.879 7.10156C130.676 7.16406 130.465 7.22656 130.246 7.28906C130.043 7.35156 129.848 7.36719 129.66 7.33594C129.504 7.46094 129.309 7.54688 129.074 7.59375C128.855 7.625 128.613 7.65625 128.348 7.6875C128.332 7.76562 128.348 7.82031 128.395 7.85156C128.441 7.86719 128.449 7.91406 128.418 7.99219C128.512 8.10156 128.629 8.17969 128.77 8.22656C128.926 8.27344 129.082 8.32031 129.238 8.36719C129.41 8.41406 129.559 8.47656 129.684 8.55469C129.809 8.61719 129.895 8.72656 129.941 8.88281C130.176 8.88281 130.379 8.9375 130.551 9.04688C130.723 9.15625 130.863 9.28906 130.973 9.44531C131.082 9.60156 131.16 9.77344 131.207 9.96094C131.27 10.1328 131.301 10.2891 131.301 10.4297C131.348 10.5547 131.402 10.6094 131.465 10.5938C131.527 10.5781 131.598 10.6094 131.676 10.6875C131.723 10.8906 131.84 11.1016 132.027 11.3203C132.215 11.5234 132.363 11.75 132.473 12C132.504 12.3906 132.527 12.7422 132.543 13.0547C132.559 13.3516 132.504 13.6562 132.379 13.9688C132.145 14.5469 131.816 15.0625 131.395 15.5156C130.988 15.9688 130.52 16.375 129.988 16.7344C129.473 17.0781 128.918 17.375 128.324 17.625C127.73 17.875 127.152 18.0859 126.59 18.2578C126.527 18.2422 126.465 18.2422 126.402 18.2578C126.34 18.2734 126.324 18.2344 126.355 18.1406C126.23 18.25 126.09 18.3203 125.934 18.3516C125.793 18.3828 125.637 18.3906 125.465 18.375C125.293 18.375 125.113 18.3672 124.926 18.3516C124.754 18.3359 124.59 18.3438 124.434 18.375C124.324 18.2656 124.223 18.1562 124.129 18.0469C124.051 17.9531 123.988 17.8281 123.941 17.6719C123.863 17.6719 123.824 17.6328 123.824 17.5547C123.84 17.4766 123.816 17.4375 123.754 17.4375C123.848 17.2812 123.887 17.1953 123.871 17.1797C123.871 17.1484 123.848 17.125 123.801 17.1094C123.77 17.0938 123.738 17.0781 123.707 17.0625C123.676 17.0312 123.668 16.9922 123.684 16.9453C123.746 16.8203 123.77 16.6797 123.754 16.5234C123.738 16.3516 123.723 16.1797 123.707 16.0078C123.691 15.8359 123.699 15.6719 123.73 15.5156C123.777 15.3594 123.895 15.2344 124.082 15.1406C124.613 15.2031 125.113 15.1875 125.582 15.0938C126.066 14.9844 126.52 14.8359 126.941 14.6484C127.363 14.4609 127.762 14.2578 128.137 14.0391C128.527 13.8203 128.91 13.625 129.285 13.4531C129.332 13.3125 129.395 13.1953 129.473 13.1016C129.566 13.0078 129.66 12.9219 129.754 12.8438C129.848 12.7656 129.934 12.6797 130.012 12.5859C130.09 12.4922 130.145 12.375 130.176 12.2344C130.191 12.125 130.16 12.0625 130.082 12.0469C130.02 12.0156 129.988 11.9531 129.988 11.8594L129.73 11.7891C129.434 11.6172 129.098 11.4766 128.723 11.3672C128.348 11.2422 128.027 11.1094 127.762 10.9688C127.59 11.0625 127.426 11.0859 127.27 11.0391C127.129 10.9922 126.941 10.9453 126.707 10.8984C126.176 10.8672 125.66 10.8125 125.16 10.7344C124.676 10.6562 124.207 10.5156 123.754 10.3125C123.723 10.2344 123.684 10.1641 123.637 10.1016C123.59 10.0391 123.504 10.0234 123.379 10.0547C123.285 9.92969 123.191 9.8125 123.098 9.70312C123.004 9.57812 122.918 9.44531 122.84 9.30469C122.871 9.11719 122.895 8.96094 122.91 8.83594C122.926 8.69531 122.879 8.5625 122.77 8.4375C122.832 8.23438 122.879 8.07031 122.91 7.94531C122.941 7.82031 122.941 7.65625 122.91 7.45312ZM146.746 4.80469C146.762 4.91406 146.762 5 146.746 5.0625C146.746 5.10938 146.738 5.15625 146.723 5.20312C146.723 5.25 146.723 5.30469 146.723 5.36719C146.723 5.41406 146.738 5.49219 146.77 5.60156C146.441 6.13281 146.059 6.5 145.621 6.70312C145.199 6.89062 144.738 7.03125 144.238 7.125C143.738 7.20312 143.223 7.28906 142.691 7.38281C142.176 7.47656 141.66 7.67969 141.145 7.99219C140.941 7.91406 140.754 7.91406 140.582 7.99219C140.426 8.07031 140.191 8.09375 139.879 8.0625C139.785 8.15625 139.668 8.22656 139.527 8.27344C139.387 8.30469 139.246 8.34375 139.105 8.39062C139.168 8.53125 139.191 8.67969 139.176 8.83594C139.176 8.97656 139.199 9.09375 139.246 9.1875C139.793 9.23438 140.395 9.22656 141.051 9.16406C141.723 9.10156 142.379 9.0625 143.02 9.04688C143.035 9.125 143.027 9.17969 142.996 9.21094C142.965 9.22656 142.957 9.26562 142.973 9.32812C143.082 9.40625 143.191 9.50781 143.301 9.63281C143.41 9.74219 143.52 9.85156 143.629 9.96094C143.738 10.0703 143.848 10.1641 143.957 10.2422C144.082 10.3047 144.223 10.3281 144.379 10.3125C144.441 10.4375 144.48 10.5781 144.496 10.7344C144.527 10.875 144.512 11.0234 144.449 11.1797C144.199 11.3516 143.949 11.5312 143.699 11.7188C143.449 11.8906 143.184 12.0469 142.902 12.1875C142.637 12.3281 142.348 12.4453 142.035 12.5391C141.738 12.6172 141.402 12.6484 141.027 12.6328C140.949 12.6328 140.887 12.6328 140.84 12.6328C140.809 12.6328 140.762 12.6094 140.699 12.5625C140.574 12.6406 140.395 12.6641 140.16 12.6328C139.941 12.6016 139.77 12.625 139.645 12.7031C139.473 12.625 139.262 12.5938 139.012 12.6094C138.777 12.6094 138.566 12.5781 138.379 12.5156C138.129 12.8438 137.902 13.1953 137.699 13.5703C137.496 13.9453 137.316 14.3438 137.16 14.7656C137.691 14.8438 138.129 14.875 138.473 14.8594C138.832 14.8438 139.168 14.8203 139.48 14.7891C139.793 14.7422 140.113 14.7031 140.441 14.6719C140.77 14.625 141.184 14.6094 141.684 14.625C141.996 14.4531 142.363 14.3438 142.785 14.2969C143.223 14.2344 143.621 14.1406 143.98 14.0156C144.105 14.0625 144.215 14.1484 144.309 14.2734C144.402 14.3828 144.488 14.4922 144.566 14.6016C144.66 14.6953 144.754 14.7812 144.848 14.8594C144.941 14.9375 145.059 14.9688 145.199 14.9531C145.262 15.0156 145.301 15.0938 145.316 15.1875C145.348 15.2656 145.371 15.3438 145.387 15.4219C145.402 15.5 145.426 15.5703 145.457 15.6328C145.504 15.6797 145.574 15.6953 145.668 15.6797C145.434 16.1953 145.16 16.5938 144.848 16.875C144.551 17.1406 144.207 17.3438 143.816 17.4844C143.426 17.625 142.988 17.7344 142.504 17.8125C142.035 17.8906 141.512 17.9844 140.934 18.0938C140.793 18.125 140.676 18.1172 140.582 18.0703C140.488 18.0391 140.379 18.0234 140.254 18.0234C139.895 18.1016 139.465 18.1719 138.965 18.2344C138.465 18.2969 137.957 18.3203 137.441 18.3047C136.926 18.2891 136.434 18.2188 135.965 18.0938C135.496 17.9844 135.113 17.7812 134.816 17.4844C134.691 17.375 134.605 17.25 134.559 17.1094C134.527 16.9531 134.426 16.8359 134.254 16.7578C134.238 16.5547 134.207 16.3281 134.16 16.0781C134.113 15.8281 134.066 15.5703 134.02 15.3047C133.973 15.0234 133.934 14.75 133.902 14.4844C133.887 14.2188 133.902 13.9766 133.949 13.7578C133.996 13.5234 134.09 13.3125 134.23 13.125C134.387 12.9375 134.441 12.7344 134.395 12.5156C134.473 12.5 134.52 12.4609 134.535 12.3984C134.551 12.3203 134.613 12.2891 134.723 12.3047C134.816 12.0234 134.918 11.7578 135.027 11.5078C135.137 11.2578 135.246 11.0156 135.355 10.7812C135.48 10.5469 135.598 10.3125 135.707 10.0781C135.832 9.82812 135.949 9.55469 136.059 9.25781C135.84 9.05469 135.676 8.83594 135.566 8.60156C135.473 8.35156 135.402 8.10938 135.355 7.875C135.309 7.625 135.27 7.375 135.238 7.125C135.207 6.85938 135.152 6.59375 135.074 6.32812C135.23 6.09375 135.418 5.90625 135.637 5.76562C135.871 5.60938 136.121 5.48438 136.387 5.39062C136.652 5.29688 136.941 5.21875 137.254 5.15625C137.566 5.09375 137.895 5.02344 138.238 4.94531C138.863 4.74219 139.418 4.58594 139.902 4.47656C140.402 4.36719 140.887 4.28125 141.355 4.21875C141.84 4.14062 142.34 4.07031 142.855 4.00781C143.371 3.94531 143.957 3.85156 144.613 3.72656C144.754 3.86719 144.887 3.9375 145.012 3.9375C145.074 3.79688 145.145 3.75781 145.223 3.82031C145.316 3.86719 145.355 3.82031 145.34 3.67969C145.496 3.94531 145.691 4.17188 145.926 4.35938C146.176 4.53125 146.449 4.67969 146.746 4.80469Z" fill="black"/>
</svg>
